<?xml version="1.0" encoding="utf-8"?>
<svg viewBox="0 0 159 65" xmlns="http://www.w3.org/2000/svg" xmlns:bx="https://boxy-svg.com" height="65px">
  <defs>
    <bx:grid x="0" y="0" width="190" height="80"/>
    <radialGradient id="gradient-2" gradientUnits="userSpaceOnUse" cx="152.286" cy="126.898" r="330" gradientTransform="matrix(0.638467, -1.091841, 1.097297, 0.641658, 52.727183, 218.434182)">
      <stop offset="0" style="stop-color: rgb(0, 170, 237);"/>
      <stop offset="1" style="stop-color: rgb(0, 145, 202);"/>
    </radialGradient>
    <linearGradient id="gradient-3" gradientUnits="userSpaceOnUse" x1="330" y1="0" x2="330" y2="660" gradientTransform="matrix(0.980745, -0.195296, 0.195753, 0.983035, -58.663244, 70.697931)">
      <stop offset="0" style="stop-color: rgb(152, 226, 255);"/>
      <stop offset="1" style="stop-color: rgb(78, 193, 239);"/>
    </linearGradient>
  </defs>
  <g transform="matrix(0.341978, 0, 0, 0.341978, -0.575058, 0.222706)">
    <g transform="matrix(0.283556, 0.000001, -0.000001, 0.283556, -233.282547, -235.615341)" style="transform-origin: 330px 330px;">
      <title>Logomark</title>
      <circle style="fill: url(&quot;#gradient-2&quot;); stroke: url(&quot;#gradient-3&quot;); stroke-width: 10.3125px;" cx="330" cy="330" r="330">
        <title>Main circle</title>
      </circle>
      <path style="stroke: rgb(105, 213, 255); fill: rgb(175, 232, 255); transform-box: fill-box; transform-origin: 50% 50%; stroke-width: 10.3125px;" d="M 289.206 96.273 C 301.806 71.812 359.213 71.685 371.747 96.178 C 396.324 144.204 325.262 231.037 371.976 258.022 C 418.669 284.994 458.301 180.013 512.156 177.284 C 539.643 175.891 568.272 225.701 553.358 248.832 C 524.394 293.758 414.546 275.441 414.408 328.894 C 414.271 382.22 524.179 363.991 552.949 408.892 C 567.814 432.09 539.008 481.753 511.49 480.402 C 457.938 477.774 418.418 372.913 372.163 400.026 C 325.608 427.315 396.867 513.817 372.41 561.92 C 359.929 586.473 302.357 586.575 289.781 562.072 C 265.193 514.159 336.05 427.714 289.572 400.513 C 243.402 373.492 203.9 478.025 150.464 480.543 C 122.981 481.837 94.327 432.094 109.294 409.009 C 138.509 363.949 248.928 382.365 248.935 328.661 C 248.942 274.89 138.47 293.046 109.319 247.862 C 94.405 224.745 123.267 175.171 150.746 176.476 C 203.981 179.005 243.095 283.122 289.209 256.411 C 335.398 229.654 264.763 143.728 289.206 96.273 Z" transform="matrix(1, -0.000003, 0.000003, 1, 0, 0)"/>
    </g>
    <g transform="matrix(1, 0, 0, 1, -3.848826, -4.564161)" style="">
      <title>Text</title>
      <path d="M 224.881 62.515 L 224.553 57.355 L 249.287 53.997 Q 248.959 49.493 246.175 46.585 Q 243.39 43.678 238.476 43.678 Q 233.398 43.678 230.081 47.323 Q 226.764 50.967 226.764 57.765 L 226.764 59.567 Q 227.338 66.119 231.064 69.517 Q 234.791 72.916 241.261 72.916 Q 244.7 72.916 247.485 71.77 Q 250.27 70.623 251.908 69.313 Q 252.809 69.886 253.341 70.664 Q 253.873 71.442 253.873 72.425 Q 253.873 73.981 252.112 75.332 Q 250.352 76.684 247.444 77.503 Q 244.537 78.322 240.933 78.322 Q 234.627 78.322 229.999 76.029 Q 225.372 73.735 222.874 69.19 Q 220.376 64.644 220.376 58.092 Q 220.376 53.424 221.727 49.78 Q 223.079 46.135 225.495 43.596 Q 227.911 41.057 231.269 39.706 Q 234.627 38.355 238.558 38.355 Q 243.554 38.355 247.362 40.484 Q 251.171 42.613 253.341 46.422 Q 255.511 50.23 255.511 55.144 Q 255.511 56.946 254.692 57.724 Q 253.873 58.502 252.399 58.666 Z M 278.516 72.998 Q 281.956 72.998 284.209 72.302 Q 286.461 71.606 287.444 70.951 L 287.444 59.075 L 277.288 60.14 Q 273.029 60.468 270.982 62.024 Q 268.934 63.58 268.934 66.528 Q 268.934 69.558 271.35 71.278 Q 273.766 72.998 278.516 72.998 Z M 278.435 38.355 Q 285.56 38.355 289.737 41.549 Q 293.914 44.743 293.914 51.622 L 293.914 71.033 Q 293.914 72.834 293.218 73.776 Q 292.521 74.718 291.129 75.537 Q 289.163 76.602 285.887 77.503 Q 282.611 78.404 278.516 78.404 Q 270.818 78.404 266.6 75.373 Q 262.382 72.343 262.382 66.61 Q 262.382 61.287 265.945 58.461 Q 269.507 55.635 275.814 55.062 L 287.444 53.916 L 287.444 51.622 Q 287.444 47.527 284.987 45.644 Q 282.53 43.76 278.353 43.76 Q 274.995 43.76 271.924 44.743 Q 268.852 45.726 266.477 46.954 Q 265.822 46.381 265.29 45.603 Q 264.757 44.825 264.757 44.006 Q 264.757 41.876 267.132 40.73 Q 269.344 39.583 272.251 38.969 Q 275.159 38.355 278.435 38.355 Z M 332.575 67.183 Q 332.575 72.425 328.726 75.373 Q 324.876 78.322 317.587 78.322 Q 311.363 78.322 307.432 76.397 Q 303.501 74.472 303.501 72.179 Q 303.501 71.196 304.033 70.255 Q 304.565 69.313 305.63 68.739 Q 307.841 70.296 310.79 71.606 Q 313.738 72.916 317.505 72.916 Q 326.023 72.916 326.023 67.183 Q 326.023 64.808 324.59 63.293 Q 323.157 61.778 320.372 61.123 L 313.574 59.321 Q 308.578 58.092 306.285 55.513 Q 303.992 52.933 303.992 49.083 Q 303.992 44.743 307.514 41.549 Q 311.035 38.355 318.243 38.355 Q 322.092 38.355 324.958 39.133 Q 327.825 39.911 329.422 41.18 Q 331.019 42.45 331.019 43.924 Q 331.019 44.988 330.487 45.807 Q 329.954 46.626 329.053 47.036 Q 328.071 46.381 326.555 45.603 Q 325.04 44.825 322.993 44.292 Q 320.945 43.76 318.488 43.76 Q 314.885 43.76 312.673 45.152 Q 310.462 46.545 310.462 49.083 Q 310.462 50.885 311.732 52.237 Q 313.001 53.588 315.786 54.243 L 321.437 55.635 Q 327.006 56.946 329.79 59.771 Q 332.575 62.597 332.575 67.183 Z M 348.949 68.821 Q 347.557 66.201 345.591 61.737 Q 343.625 57.273 341.537 51.745 Q 339.449 46.217 337.565 40.484 Q 338.138 39.665 339.08 39.174 Q 340.022 38.682 341.087 38.682 Q 342.479 38.682 343.38 39.419 Q 344.281 40.156 344.854 41.876 Q 347.311 48.756 350.014 55.554 Q 352.716 62.351 355.992 69.64 L 356.32 69.64 Q 358.04 66.201 359.924 61.041 Q 361.807 55.881 363.527 50.148 Q 365.247 44.415 366.394 39.337 Q 366.967 39.092 367.663 38.887 Q 368.359 38.682 369.178 38.682 Q 370.571 38.682 371.471 39.378 Q 372.372 40.074 372.372 41.467 Q 372.372 42.777 371.635 45.848 Q 370.898 48.92 369.629 52.974 Q 368.359 57.028 366.68 61.573 Q 365.001 66.119 363.077 70.5 Q 361.152 74.882 359.186 78.404 Q 355.419 85.365 352.307 89.092 Q 349.195 92.818 346.574 92.818 Q 344.69 92.818 343.666 91.835 Q 342.643 90.852 342.397 89.542 Q 344.199 87.986 346.451 85.406 Q 348.703 82.826 350.792 79.837 Q 352.88 76.848 354.191 74.145 Q 352.798 73.735 351.611 72.671 Q 350.423 71.606 348.949 68.821 Z" style="line-height: 191.825px; text-wrap-mode: nowrap;"/>
      <path d="M 251.685 148.756 Q 251.685 154.489 247.426 157.724 Q 243.167 160.96 235.059 160.96 Q 228.507 160.96 224.33 158.994 Q 220.154 157.028 220.154 153.752 Q 220.154 152.36 220.809 151.172 Q 221.464 149.985 222.529 149.33 Q 224.822 150.804 227.852 151.951 Q 230.882 153.097 234.732 153.097 Q 241.693 153.097 241.693 148.838 Q 241.693 147.037 240.465 145.931 Q 239.236 144.825 236.697 144.334 L 232.029 143.105 Q 226.05 141.795 223.143 139.01 Q 220.235 136.226 220.235 131.557 Q 220.235 126.398 224.494 123.081 Q 228.753 119.764 236.288 119.764 Q 240.219 119.764 243.331 120.542 Q 246.443 121.32 248.204 122.794 Q 249.965 124.268 249.965 126.316 Q 249.965 127.708 249.351 128.814 Q 248.737 129.919 247.754 130.493 Q 246.771 129.919 245.092 129.223 Q 243.413 128.527 241.284 128.077 Q 239.154 127.626 237.025 127.626 Q 233.831 127.626 231.988 128.65 Q 230.145 129.674 230.145 131.557 Q 230.145 132.95 231.21 133.933 Q 232.275 134.915 234.814 135.489 L 238.991 136.471 Q 245.624 138.028 248.655 141.017 Q 251.685 144.006 251.685 148.756 Z M 296.034 143.187 L 285.96 143.187 L 285.96 135.816 Q 285.96 131.639 283.708 129.756 Q 281.456 127.872 278.016 127.872 Q 275.231 127.872 272.897 128.937 Q 270.563 130.001 268.843 131.394 L 268.27 123.204 Q 270.154 122.057 273.102 120.951 Q 276.05 119.846 279.736 119.846 Q 287.107 119.846 291.57 123.695 Q 296.034 127.544 296.034 135.325 Z M 260.244 138.109 L 270.317 138.109 L 270.317 159.567 Q 269.662 159.813 268.434 160.018 Q 267.205 160.222 265.731 160.222 Q 262.946 160.222 261.595 159.199 Q 260.244 158.175 260.244 155.554 Z M 285.96 138.191 L 296.034 138.191 L 296.034 159.567 Q 295.379 159.813 294.109 160.018 Q 292.84 160.222 291.448 160.222 Q 288.581 160.222 287.271 159.199 Q 285.96 158.175 285.96 155.554 Z M 270.317 143.269 L 260.244 143.269 L 260.244 106.496 Q 260.899 106.332 262.127 106.087 Q 263.356 105.841 264.83 105.841 Q 267.697 105.841 269.007 106.865 Q 270.317 107.888 270.317 110.509 Z M 321.778 153.261 Q 324.235 153.261 326.201 152.77 Q 328.167 152.278 329.067 151.705 L 329.067 142.368 L 320.959 143.187 Q 317.601 143.433 315.841 144.62 Q 314.08 145.808 314.08 148.101 Q 314.08 150.476 315.963 151.869 Q 317.847 153.261 321.778 153.261 Z M 321.369 119.846 Q 329.395 119.846 334.145 123.245 Q 338.895 126.643 338.895 133.933 L 338.895 152.77 Q 338.895 154.735 337.954 155.882 Q 337.012 157.028 335.538 157.929 Q 333.244 159.24 329.723 160.1 Q 326.201 160.96 321.778 160.96 Q 313.588 160.96 308.92 157.806 Q 304.252 154.653 304.252 148.429 Q 304.252 142.942 307.733 140.034 Q 311.213 137.127 317.847 136.471 L 328.986 135.325 L 328.986 133.851 Q 328.986 130.575 326.733 129.1 Q 324.481 127.626 320.386 127.626 Q 317.192 127.626 314.162 128.445 Q 311.131 129.264 308.756 130.411 Q 307.937 129.756 307.282 128.609 Q 306.627 127.462 306.627 126.234 Q 306.627 123.286 309.903 121.893 Q 312.196 120.829 315.267 120.337 Q 318.339 119.846 321.369 119.846 Z M 367.444 160.878 Q 373.095 160.878 377.477 158.543 Q 381.858 156.209 384.356 151.623 Q 386.854 147.037 386.854 140.157 Q 386.854 133.032 384.193 128.527 Q 381.531 124.023 376.862 121.934 Q 372.194 119.846 366.215 119.846 Q 361.793 119.846 358.271 120.869 Q 354.749 121.893 352.374 123.286 Q 350.654 124.35 349.917 125.579 Q 349.18 126.807 349.18 128.691 L 349.18 155.554 L 359.254 155.554 L 359.254 129.674 Q 360.482 128.937 362.202 128.404 Q 363.922 127.872 366.215 127.872 Q 369.164 127.872 371.539 129.1 Q 373.914 130.329 375.265 132.991 Q 376.617 135.652 376.617 140.157 Q 376.617 146.627 373.75 149.698 Q 370.884 152.77 365.97 152.77 Q 363.021 152.77 360.851 151.746 Q 358.681 150.722 357.125 149.412 L 357.125 158.093 Q 358.844 159.158 361.506 160.018 Q 364.168 160.878 367.444 160.878 Z M 359.254 152.77 L 349.18 152.688 L 349.18 170.296 Q 349.18 172.917 350.532 173.982 Q 351.883 175.046 354.668 175.046 Q 356.142 175.046 357.37 174.842 Q 358.599 174.637 359.254 174.391 Z M 399.85 145.48 L 399.441 138.437 L 421.39 135.161 Q 421.144 132.049 419.015 129.756 Q 416.886 127.462 412.791 127.462 Q 408.614 127.462 405.829 130.37 Q 403.044 133.277 402.963 138.683 L 403.208 142.942 Q 403.945 148.183 407.262 150.64 Q 410.579 153.097 415.657 153.097 Q 419.097 153.097 422.045 152.073 Q 424.994 151.05 426.714 149.821 Q 427.86 150.558 428.556 151.664 Q 429.252 152.77 429.252 154.08 Q 429.252 156.209 427.369 157.724 Q 425.485 159.24 422.291 160.059 Q 419.097 160.878 415.002 160.878 Q 408.696 160.878 403.822 158.543 Q 398.949 156.209 396.206 151.541 Q 393.462 146.873 393.462 139.911 Q 393.462 134.915 395.018 131.148 Q 396.574 127.381 399.236 124.883 Q 401.898 122.385 405.42 121.115 Q 408.941 119.846 412.791 119.846 Q 418.196 119.846 422.25 122.016 Q 426.304 124.186 428.638 128.036 Q 430.972 131.885 430.972 136.881 Q 430.972 139.174 429.785 140.28 Q 428.597 141.385 426.468 141.631 Z M 469.344 148.756 Q 469.344 154.489 465.085 157.724 Q 460.826 160.96 452.718 160.96 Q 446.166 160.96 441.989 158.994 Q 437.813 157.028 437.813 153.752 Q 437.813 152.36 438.468 151.172 Q 439.123 149.985 440.188 149.33 Q 442.481 150.804 445.511 151.951 Q 448.541 153.097 452.391 153.097 Q 459.352 153.097 459.352 148.838 Q 459.352 147.037 458.124 145.931 Q 456.895 144.825 454.356 144.334 L 449.688 143.105 Q 443.709 141.795 440.802 139.01 Q 437.894 136.226 437.894 131.557 Q 437.894 126.398 442.153 123.081 Q 446.412 119.764 453.947 119.764 Q 457.878 119.764 460.99 120.542 Q 464.102 121.32 465.863 122.794 Q 467.624 124.268 467.624 126.316 Q 467.624 127.708 467.01 128.814 Q 466.396 129.919 465.413 130.493 Q 464.43 129.919 462.751 129.223 Q 461.072 128.527 458.943 128.077 Q 456.813 127.626 454.684 127.626 Q 451.49 127.626 449.647 128.65 Q 447.804 129.674 447.804 131.557 Q 447.804 132.95 448.869 133.933 Q 449.934 134.915 452.473 135.489 L 456.65 136.471 Q 463.283 138.028 466.314 141.017 Q 469.344 144.006 469.344 148.756 Z" style="line-height: 191.825px; text-wrap-mode: nowrap;"/>
    </g>
  </g>
</svg>