<?xml version="1.0" encoding="utf-8"?>
<svg viewBox="0 0 158 65" xmlns="http://www.w3.org/2000/svg" xmlns:bx="https://boxy-svg.com" height="65px">
  <defs>
    <bx:grid x="0" y="0" width="190" height="80"/>
    <radialGradient id="gradient-2" gradientUnits="userSpaceOnUse" cx="152.286" cy="126.898" r="330" gradientTransform="matrix(0.638467, -1.091841, 1.097297, 0.641658, 52.727157, 218.434155)">
      <stop offset="0" style="stop-color: rgb(0, 170, 237);"/>
      <stop offset="1" style="stop-color: rgb(0, 145, 202);"/>
    </radialGradient>
    <linearGradient id="gradient-3" gradientUnits="userSpaceOnUse" x1="330" y1="0" x2="330" y2="660" gradientTransform="matrix(0.980745, -0.195296, 0.195753, 0.983035, -58.663231, 70.697919)">
      <stop offset="0" style="stop-color: rgb(152, 226, 255);"/>
      <stop offset="1" style="stop-color: rgb(78, 193, 239);"/>
    </linearGradient>
  </defs>
  <g transform="matrix(0.339786, 0, 0, 0.339786, -139.651657, -61.892326)" style="transform-origin: 210.93px 94.3847px;">
    <g transform="matrix(0.273894, -0.073389, 0.073389, 0.273894, -233.282547, -235.615341)" style="transform-origin: 330px 330px;">
      <title>Logomark</title>
      <circle style="fill: url(&quot;#gradient-2&quot;); stroke: url(&quot;#gradient-3&quot;); stroke-width: 10.3125px; transform-box: fill-box; transform-origin: 50% 50%;" cx="330" cy="330" r="330" transform="matrix(0.965926, 0.258819, -0.258819, 0.965926, 0.000085, 0.000054)">
        <title>Main circle</title>
      </circle>
      <g transform="matrix(1, 0, 0, 1, 76.346565, 87.309868)">
        <title>Inner elements</title>
        <path d="M 254.298 -1.857 L 465.704 120.199 L 465.704 364.309 L 254.298 486.365 L 42.892 364.31 L 42.892 120.198 Z" style="fill: none; stroke-width: 20.625px; transform-box: fill-box; transform-origin: 50% 50%; stroke: rgb(141, 223, 255);" bx:shape="n-gon 254.298 242.254 244.111 244.111 6 0 1@11e70149" transform="matrix(0.965926, 0.258819, -0.258819, 0.965926, 0.03811, -0.966837)"/>
        <line style="fill: rgb(216, 216, 216); stroke-width: 20.625px; transform-origin: 80.741px 248.553px; stroke: rgb(212, 243, 255);" x1="77.672" y1="306.334" x2="77.671" y2="84.615" transform="matrix(0.965925, 0.258821, -0.258821, 0.965925, 0.000004, 0.000001)"/>
        <line style="fill: rgb(216, 216, 216); stroke-width: 20.625px; transform-origin: 249.328px 420.284px; stroke: rgb(212, 243, 255);" x1="246.259" y1="478.06" x2="246.259" y2="256.341" transform="matrix(0.258817, 0.965926, -0.965926, 0.258817, -0.000009, -0.000014)"/>
        <line style="fill: rgb(216, 216, 216); stroke-width: 20.625px; transform-origin: 411.506px 157.731px; stroke: rgb(212, 243, 255);" x1="408.437" y1="215.512" x2="408.436" y2="-6.207" transform="matrix(0.707108, -0.707106, 0.707106, 0.707108, -0.000008, -0.000002)"/>
      </g>
    </g>
    <g transform="matrix(1, 0, 0, 1, -3.848826, -4.564161)" style="">
      <title>Text</title>
      <path d="M 224.881 62.515 L 224.553 57.355 L 249.287 53.997 Q 248.959 49.493 246.175 46.585 Q 243.39 43.678 238.476 43.678 Q 233.398 43.678 230.081 47.323 Q 226.764 50.967 226.764 57.765 L 226.764 59.567 Q 227.338 66.119 231.064 69.517 Q 234.791 72.916 241.261 72.916 Q 244.7 72.916 247.485 71.77 Q 250.27 70.623 251.908 69.313 Q 252.809 69.886 253.341 70.664 Q 253.873 71.442 253.873 72.425 Q 253.873 73.981 252.112 75.332 Q 250.352 76.684 247.444 77.503 Q 244.537 78.322 240.933 78.322 Q 234.627 78.322 229.999 76.029 Q 225.372 73.735 222.874 69.19 Q 220.376 64.644 220.376 58.092 Q 220.376 53.424 221.727 49.78 Q 223.079 46.135 225.495 43.596 Q 227.911 41.057 231.269 39.706 Q 234.627 38.355 238.558 38.355 Q 243.554 38.355 247.362 40.484 Q 251.171 42.613 253.341 46.422 Q 255.511 50.23 255.511 55.144 Q 255.511 56.946 254.692 57.724 Q 253.873 58.502 252.399 58.666 Z M 278.523 72.998 Q 281.963 72.998 284.215 72.302 Q 286.467 71.606 287.45 70.951 L 287.45 59.075 L 277.295 60.14 Q 273.036 60.468 270.988 62.024 Q 268.941 63.58 268.941 66.528 Q 268.941 69.558 271.357 71.278 Q 273.773 72.998 278.523 72.998 Z M 278.441 38.355 Q 285.566 38.355 289.743 41.549 Q 293.92 44.743 293.92 51.622 L 293.92 71.033 Q 293.92 72.834 293.224 73.776 Q 292.528 74.718 291.136 75.537 Q 289.17 76.602 285.894 77.503 Q 282.618 78.404 278.523 78.404 Q 270.824 78.404 266.607 75.373 Q 262.389 72.343 262.389 66.61 Q 262.389 61.287 265.951 58.461 Q 269.514 55.635 275.82 55.062 L 287.45 53.916 L 287.45 51.622 Q 287.45 47.527 284.993 45.644 Q 282.536 43.76 278.359 43.76 Q 275.001 43.76 271.93 44.743 Q 268.859 45.726 266.484 46.954 Q 265.829 46.381 265.296 45.603 Q 264.764 44.825 264.764 44.006 Q 264.764 41.876 267.139 40.73 Q 269.35 39.583 272.258 38.969 Q 275.165 38.355 278.441 38.355 Z M 332.577 67.183 Q 332.577 72.425 328.728 75.373 Q 324.879 78.322 317.59 78.322 Q 311.365 78.322 307.434 76.397 Q 303.503 74.472 303.503 72.179 Q 303.503 71.196 304.035 70.255 Q 304.568 69.313 305.632 68.739 Q 307.844 70.296 310.792 71.606 Q 313.74 72.916 317.508 72.916 Q 326.025 72.916 326.025 67.183 Q 326.025 64.808 324.592 63.293 Q 323.159 61.778 320.374 61.123 L 313.577 59.321 Q 308.581 58.092 306.287 55.513 Q 303.994 52.933 303.994 49.083 Q 303.994 44.743 307.516 41.549 Q 311.038 38.355 318.245 38.355 Q 322.094 38.355 324.961 39.133 Q 327.827 39.911 329.424 41.18 Q 331.021 42.45 331.021 43.924 Q 331.021 44.988 330.489 45.807 Q 329.957 46.626 329.056 47.036 Q 328.073 46.381 326.558 45.603 Q 325.043 44.825 322.995 44.292 Q 320.948 43.76 318.491 43.76 Q 314.887 43.76 312.676 45.152 Q 310.464 46.545 310.464 49.083 Q 310.464 50.885 311.734 52.237 Q 313.003 53.588 315.788 54.243 L 321.439 55.635 Q 327.008 56.946 329.793 59.771 Q 332.577 62.597 332.577 67.183 Z M 348.957 68.821 Q 347.564 66.201 345.599 61.737 Q 343.633 57.273 341.545 51.745 Q 339.456 46.217 337.573 40.484 Q 338.146 39.665 339.088 39.174 Q 340.03 38.682 341.094 38.682 Q 342.487 38.682 343.388 39.419 Q 344.288 40.156 344.862 41.876 Q 347.319 48.756 350.021 55.554 Q 352.724 62.351 356 69.64 L 356.328 69.64 Q 358.048 66.201 359.931 61.041 Q 361.815 55.881 363.535 50.148 Q 365.255 44.415 366.401 39.337 Q 366.975 39.092 367.671 38.887 Q 368.367 38.682 369.186 38.682 Q 370.578 38.682 371.479 39.378 Q 372.38 40.074 372.38 41.467 Q 372.38 42.777 371.643 45.848 Q 370.906 48.92 369.636 52.974 Q 368.367 57.028 366.688 61.573 Q 365.009 66.119 363.084 70.5 Q 361.16 74.882 359.194 78.404 Q 355.427 85.365 352.315 89.092 Q 349.202 92.818 346.582 92.818 Q 344.698 92.818 343.674 91.835 Q 342.65 90.852 342.405 89.542 Q 344.207 87.986 346.459 85.406 Q 348.711 82.826 350.799 79.837 Q 352.888 76.848 354.198 74.145 Q 352.806 73.735 351.618 72.671 Q 350.431 71.606 348.957 68.821 Z" style="line-height: 191.825px; text-wrap-mode: nowrap;"/>
      <path d="M 251.685 148.756 Q 251.685 154.489 247.426 157.724 Q 243.167 160.96 235.059 160.96 Q 228.507 160.96 224.33 158.994 Q 220.154 157.028 220.154 153.752 Q 220.154 152.36 220.809 151.172 Q 221.464 149.985 222.529 149.33 Q 224.822 150.804 227.852 151.951 Q 230.882 153.097 234.732 153.097 Q 241.693 153.097 241.693 148.838 Q 241.693 147.037 240.465 145.931 Q 239.236 144.825 236.697 144.334 L 232.029 143.105 Q 226.05 141.795 223.143 139.01 Q 220.235 136.226 220.235 131.557 Q 220.235 126.398 224.494 123.081 Q 228.753 119.764 236.288 119.764 Q 240.219 119.764 243.331 120.542 Q 246.443 121.32 248.204 122.794 Q 249.965 124.268 249.965 126.316 Q 249.965 127.708 249.351 128.814 Q 248.737 129.919 247.754 130.493 Q 246.771 129.919 245.092 129.223 Q 243.413 128.527 241.284 128.077 Q 239.154 127.626 237.025 127.626 Q 233.831 127.626 231.988 128.65 Q 230.145 129.674 230.145 131.557 Q 230.145 132.95 231.21 133.933 Q 232.275 134.915 234.814 135.489 L 238.991 136.471 Q 245.624 138.028 248.655 141.017 Q 251.685 144.006 251.685 148.756 Z M 296.04 143.187 L 285.966 143.187 L 285.966 135.816 Q 285.966 131.639 283.714 129.756 Q 281.461 127.872 278.022 127.872 Q 275.237 127.872 272.903 128.937 Q 270.569 130.001 268.849 131.394 L 268.275 123.204 Q 270.159 122.057 273.108 120.951 Q 276.056 119.846 279.741 119.846 Q 287.112 119.846 291.576 123.695 Q 296.04 127.544 296.04 135.325 Z M 260.249 138.109 L 270.323 138.109 L 270.323 159.567 Q 269.668 159.813 268.439 160.018 Q 267.211 160.222 265.737 160.222 Q 262.952 160.222 261.601 159.199 Q 260.249 158.175 260.249 155.554 Z M 285.966 138.191 L 296.04 138.191 L 296.04 159.567 Q 295.384 159.813 294.115 160.018 Q 292.845 160.222 291.453 160.222 Q 288.587 160.222 287.276 159.199 Q 285.966 158.175 285.966 155.554 Z M 270.323 143.269 L 260.249 143.269 L 260.249 106.496 Q 260.904 106.332 262.133 106.087 Q 263.361 105.841 264.836 105.841 Q 267.702 105.841 269.013 106.865 Q 270.323 107.888 270.323 110.509 Z M 321.783 153.261 Q 324.24 153.261 326.206 152.77 Q 328.172 152.278 329.072 151.705 L 329.072 142.368 L 320.964 143.187 Q 317.606 143.433 315.846 144.62 Q 314.085 145.808 314.085 148.101 Q 314.085 150.476 315.968 151.869 Q 317.852 153.261 321.783 153.261 Z M 321.374 119.846 Q 329.4 119.846 334.15 123.245 Q 338.9 126.643 338.9 133.933 L 338.9 152.77 Q 338.9 154.735 337.959 155.882 Q 337.017 157.028 335.543 157.929 Q 333.249 159.24 329.728 160.1 Q 326.206 160.96 321.783 160.96 Q 313.593 160.96 308.925 157.806 Q 304.257 154.653 304.257 148.429 Q 304.257 142.942 307.737 140.034 Q 311.218 137.127 317.852 136.471 L 328.991 135.325 L 328.991 133.851 Q 328.991 130.575 326.738 129.1 Q 324.486 127.626 320.391 127.626 Q 317.197 127.626 314.167 128.445 Q 311.136 129.264 308.761 130.411 Q 307.942 129.756 307.287 128.609 Q 306.632 127.462 306.632 126.234 Q 306.632 123.286 309.908 121.893 Q 312.201 120.829 315.272 120.337 Q 318.344 119.846 321.374 119.846 Z M 367.449 160.878 Q 373.1 160.878 377.481 158.543 Q 381.863 156.209 384.361 151.623 Q 386.859 147.037 386.859 140.157 Q 386.859 133.032 384.197 128.527 Q 381.535 124.023 376.867 121.934 Q 372.199 119.846 366.22 119.846 Q 361.797 119.846 358.276 120.869 Q 354.754 121.893 352.379 123.286 Q 350.659 124.35 349.922 125.579 Q 349.185 126.807 349.185 128.691 L 349.185 155.554 L 359.259 155.554 L 359.259 129.674 Q 360.487 128.937 362.207 128.404 Q 363.927 127.872 366.22 127.872 Q 369.168 127.872 371.544 129.1 Q 373.919 130.329 375.27 132.991 Q 376.621 135.652 376.621 140.157 Q 376.621 146.627 373.755 149.698 Q 370.888 152.77 365.974 152.77 Q 363.026 152.77 360.856 151.746 Q 358.685 150.722 357.129 149.412 L 357.129 158.093 Q 358.849 159.158 361.511 160.018 Q 364.173 160.878 367.449 160.878 Z M 359.259 152.77 L 349.185 152.688 L 349.185 170.296 Q 349.185 172.917 350.536 173.982 Q 351.888 175.046 354.672 175.046 Q 356.146 175.046 357.375 174.842 Q 358.603 174.637 359.259 174.391 Z M 399.858 145.48 L 399.449 138.437 L 421.398 135.161 Q 421.152 132.049 419.023 129.756 Q 416.894 127.462 412.799 127.462 Q 408.622 127.462 405.837 130.37 Q 403.052 133.277 402.971 138.683 L 403.216 142.942 Q 403.953 148.183 407.27 150.64 Q 410.587 153.097 415.665 153.097 Q 419.105 153.097 422.053 152.073 Q 425.002 151.05 426.722 149.821 Q 427.868 150.558 428.564 151.664 Q 429.26 152.77 429.26 154.08 Q 429.26 156.209 427.377 157.724 Q 425.493 159.24 422.299 160.059 Q 419.105 160.878 415.01 160.878 Q 408.704 160.878 403.831 158.543 Q 398.957 156.209 396.214 151.541 Q 393.47 146.873 393.47 139.911 Q 393.47 134.915 395.026 131.148 Q 396.582 127.381 399.244 124.883 Q 401.906 122.385 405.428 121.115 Q 408.949 119.846 412.799 119.846 Q 418.204 119.846 422.258 122.016 Q 426.312 124.186 428.646 128.036 Q 430.98 131.885 430.98 136.881 Q 430.98 139.174 429.793 140.28 Q 428.605 141.385 426.476 141.631 Z M 469.351 148.756 Q 469.351 154.489 465.092 157.724 Q 460.833 160.96 452.725 160.96 Q 446.173 160.96 441.996 158.994 Q 437.82 157.028 437.82 153.752 Q 437.82 152.36 438.475 151.172 Q 439.13 149.985 440.195 149.33 Q 442.488 150.804 445.518 151.951 Q 448.548 153.097 452.398 153.097 Q 459.359 153.097 459.359 148.838 Q 459.359 147.037 458.131 145.931 Q 456.902 144.825 454.363 144.334 L 449.695 143.105 Q 443.716 141.795 440.809 139.01 Q 437.901 136.226 437.901 131.557 Q 437.901 126.398 442.16 123.081 Q 446.419 119.764 453.954 119.764 Q 457.885 119.764 460.997 120.542 Q 464.109 121.32 465.87 122.794 Q 467.631 124.268 467.631 126.316 Q 467.631 127.708 467.017 128.814 Q 466.403 129.919 465.42 130.493 Q 464.437 129.919 462.758 129.223 Q 461.079 128.527 458.95 128.077 Q 456.82 127.626 454.691 127.626 Q 451.497 127.626 449.654 128.65 Q 447.811 129.674 447.811 131.557 Q 447.811 132.95 448.876 133.933 Q 449.941 134.915 452.48 135.489 L 456.657 136.471 Q 463.29 138.028 466.321 141.017 Q 469.351 144.006 469.351 148.756 Z" style="line-height: 191.825px; text-wrap-mode: nowrap;"/>
    </g>
  </g>
</svg>