<?xml version="1.0" encoding="utf-8"?>
<svg viewBox="0 0 210 80" xmlns="http://www.w3.org/2000/svg" xmlns:bx="https://boxy-svg.com">
  <defs>
    <radialGradient id="gradient-1" gradientUnits="userSpaceOnUse" cx="152.286" cy="126.898" r="330" gradientTransform="matrix(0.638467, -1.091841, 1.097297, 0.641658, 52.656119, 215.401816)">
      <stop offset="0" style="stop-color: rgb(0, 170, 237);"/>
      <stop offset="1" style="stop-color: rgb(0, 145, 202);"/>
    </radialGradient>
    <linearGradient id="gradient-0" gradientUnits="userSpaceOnUse" x1="330" y1="0" x2="330" y2="660" gradientTransform="matrix(0.980745, -0.195296, 0.195753, 0.983035, -58.734308, 67.665557)">
      <stop offset="0" style="stop-color: rgb(152, 226, 255);"/>
      <stop offset="1" style="stop-color: rgb(78, 193, 239);"/>
    </linearGradient>
    <style bx:fonts="Baloo 2">@import url(https://fonts.googleapis.com/css2?family=Baloo+2%3Aital%2Cwght%400%2C400..800&amp;display=swap);</style>
    <bx:grid x="0" y="0" width="190" height="80"/>
    <bx:guide x="42.609312751886165" y="40.60588896495875" angle="0"/>
    <bx:guide x="43.2393447626756" y="40.601323515605216" angle="90"/>
    <linearGradient gradientUnits="userSpaceOnUse" x1="40.615" y1="36.706" x2="40.615" y2="49.816" id="gradient-2" gradientTransform="matrix(0.464577, -0.885532, 1.627663, 0.853923, -48.887446, 41.948)">
      <stop offset="0" style="stop-color: rgb(255, 255, 255);"/>
      <stop offset="1" style="stop-color: rgb(212, 243, 255);"/>
    </linearGradient>
    <linearGradient gradientUnits="userSpaceOnUse" x1="40.615" y1="36.706" x2="40.615" y2="49.816" id="gradient-3" gradientTransform="matrix(0.462149, -0.886802, 1.632317, 0.850666, -49.050006, 42.157448)">
      <stop offset="0" style="stop-color: rgb(78, 195, 239);"/>
      <stop offset="1" style="stop-color: rgb(99, 211, 255);"/>
    </linearGradient>
  </defs>
  <g transform="matrix(0.341978, 0, 0, 0.341978, 9.524829, 7.722592)">
    <g transform="matrix(0.283554, 0, 0, 0.283554, -233.25322, -232.583527)" style="transform-origin: 329.929px 326.968px;">
      <title>Logo</title>
      <circle style="fill: url(&quot;#gradient-1&quot;); stroke: url(&quot;#gradient-0&quot;); paint-order: fill; stroke-width: 10.3125px;" cx="329.929" cy="326.968" r="330">
        <title>Main circle</title>
      </circle>
      <g transform="matrix(10.312513, 0, 0, 10.312513, -109.237785, -85.532562)">
        <path style="stroke: rgb(78, 194, 239); fill: rgb(255, 255, 255);" d="M 17.147 38.507 L 17.989 47.117 L 27.215 46.161 L 28.821 41.865 L 26.401 37.718 L 17.147 38.507 Z"/>
        <path style="fill: url(&quot;#gradient-2&quot;); stroke: url(&quot;#gradient-3&quot;);" d="M 29.657 37.361 L 41.181 36.706 L 51.573 44.901 L 51.054 48.55 L 47.621 49.816 L 40.657 44.623 L 30.485 45.763 L 32.081 41.486 L 29.657 37.361 Z"/>
        <path style="fill: rgb(212, 243, 255); stroke: rgb(99, 211, 255);" d="M 54.007 46.831 L 53.505 50.483 L 50.109 51.718 L 57.446 57.176 L 60.687 56.054 L 60.907 52.654 L 54.007 46.831 Z"/>
        <path style="stroke: rgb(99, 211, 255); fill: rgb(179, 233, 255);" d="M 43.211 34.628 L 43.589 33.715 L 44.023 32.774 L 44.517 31.775 L 45.095 30.797 L 45.928 29.712 L 46.891 28.725 L 47.931 27.878 L 49.321 27.026 L 52.212 27.846 L 52.699 30.678 L 51.576 31.328 L 50.746 31.952 L 49.73 32.952 L 49.05 33.937 L 48.48 35.01 L 48.067 36.029 L 47.733 37.03 L 47.414 38.037 L 43.211 34.628 Z"/>
        <path style="stroke: rgb(99, 211, 255); fill: rgb(179, 233, 255);" d="M 51.788 25.044 L 54.527 25.804 L 55.048 28.78 L 56.176 27.797 L 57.187 26.81 L 58.018 25.793 L 58.726 24.626 L 59.327 23.27 L 59.726 21.807 L 58.319 19.526 L 55.26 19.827 L 54.932 20.967 L 54.501 22.06 L 53.847 23.076 L 52.966 24.033 L 51.788 25.044 Z"/>
      </g>
    </g>
    <g transform="matrix(1, 0, 0, 1, -3.848826, -4.564161)" style="">
      <title>Text</title>
      <text style="font-family: &quot;Baloo 2&quot;; font-size: 81.9px; font-weight: 300; line-height: 191.825px; white-space: pre;" x="216.363" y="77.257"><title>easy</title>easy</text>
      <text style="font-family: &quot;Baloo 2&quot;; font-size: 81.9px; font-weight: 600; line-height: 191.825px; white-space: pre;" x="216.468" y="159.731">dynamics</text>
    </g>
  </g>
</svg>