<?xml version="1.0" encoding="utf-8"?>
<svg viewBox="0 0 191 80" xmlns="http://www.w3.org/2000/svg" xmlns:bx="https://boxy-svg.com">
  <defs>
    <style bx:fonts="Baloo 2">@import url(https://fonts.googleapis.com/css2?family=Baloo+2%3Aital%2Cwght%400%2C400..800&amp;display=swap);</style>
    <bx:grid x="0" y="0" width="190" height="80"/>
    <radialGradient id="gradient-6" gradientUnits="userSpaceOnUse" cx="152.286" cy="126.898" r="330" gradientTransform="matrix(0.638467, -1.091841, 1.097297, 0.641658, 52.656119, 215.401816)">
      <stop offset="0" style="stop-color: rgb(0, 170, 237);"/>
      <stop offset="1" style="stop-color: rgb(0, 145, 202);"/>
    </radialGradient>
    <linearGradient id="gradient-7" gradientUnits="userSpaceOnUse" x1="330" y1="0" x2="330" y2="660" gradientTransform="matrix(0.980745, -0.195296, 0.195753, 0.983035, -58.734308, 67.665557)">
      <stop offset="0" style="stop-color: rgb(152, 226, 255);"/>
      <stop offset="1" style="stop-color: rgb(78, 193, 239);"/>
    </linearGradient>
    <linearGradient gradientUnits="userSpaceOnUse" x1="330.905" y1="39.833" x2="330.905" y2="619.809" id="gradient-0" gradientTransform="matrix(0.864946, -0.286448, 0.284727, 0.859748, -50.809255, 138.160353)">
      <stop offset="0" style="stop-color: rgb(212, 243, 255);"/>
      <stop offset="1" style="stop-color: rgb(179, 233, 255);"/>
    </linearGradient>
    <linearGradient gradientUnits="userSpaceOnUse" x1="330.31" y1="31.022" x2="330.31" y2="621.634" id="gradient-1" gradientTransform="matrix(0.865542, -0.226696, 0.224772, 0.858198, -45.706948, 126.860853)">
      <stop offset="0" style="stop-color: rgb(1, 155, 215);"/>
      <stop offset="1" style="stop-color: rgb(4, 132, 182);"/>
    </linearGradient>
  </defs>
  <g>
    <g transform="matrix(0.09697, 0, 0, 0.09697, 10.606886, 8.294015)">
      <title>Logo</title>
      <circle style="paint-order: fill; stroke-width: 10.3125px; fill: url(&quot;#gradient-6&quot;); stroke: url(&quot;#gradient-7&quot;);" cx="329.929" cy="326.968" r="330">
        <title>Main circle</title>
      </circle>
      <path style="stroke-width: 10.4762px; fill: url(&quot;#gradient-0&quot;); stroke: url(&quot;#gradient-1&quot;);" d="M 275.669 68.276 C 275.669 68.276 306.801 63.093 333.139 63.195 C 359.477 63.295 382.469 67.845 402.663 73.425 C 421.352 78.589 445.069 89.326 466.04 101.764 C 487.01 114.204 503.788 129.183 503.788 129.183 C 503.788 129.183 501.859 145.085 497.663 163.553 C 493.468 182.03 487.01 203.073 482.549 217.546 C 477.963 232.413 470.443 253.207 463.318 271.311 C 456.191 289.411 449.272 304.499 449.272 304.499 C 449.272 304.499 433.891 272.148 417.786 242.637 C 401.683 213.121 383.815 188.007 367.68 166.543 C 354.208 148.613 332.128 123.131 312.185 103.353 C 292.244 83.573 275.669 68.276 275.669 68.276 Z M 79.852 245.036 C 79.852 245.036 90.926 215.484 104.183 192.725 C 117.439 169.967 132.876 152.328 147.803 137.633 C 161.621 124.026 182.777 108.856 204.037 96.914 C 225.294 84.973 246.656 77.932 246.656 77.932 C 246.656 77.932 259.459 87.556 273.359 100.424 C 287.261 113.294 302.258 129.408 312.558 140.509 C 323.143 151.913 337.39 168.823 349.506 184.043 C 361.618 199.266 371.227 212.804 371.227 212.804 C 371.227 212.804 335.518 209.95 301.908 209.139 C 268.298 208.327 237.61 211.245 210.957 214.484 C 188.692 217.188 155.583 223.569 128.483 230.949 C 101.385 238.331 79.852 245.036 79.852 245.036 Z M 526.797 152.772 C 526.797 152.772 546.855 177.14 559.936 200.002 C 573.019 222.86 580.575 245.048 585.84 265.323 C 590.709 284.095 593.274 310 592.984 334.382 C 592.697 358.762 588.113 380.784 588.113 380.784 C 588.113 380.784 573.378 387.059 555.285 392.663 C 537.188 398.267 515.733 403.197 500.971 406.568 C 485.801 410.032 464.034 413.916 444.792 416.799 C 425.554 419.675 409.025 421.228 409.025 421.228 C 409.025 421.228 429.352 391.729 446.859 363.03 C 464.367 334.326 477.184 306.295 487.705 281.59 C 496.497 260.958 507.524 229.094 514.683 201.936 C 521.839 174.774 526.797 152.772 526.797 152.772 Z M 578.637 410.749 C 578.637 410.749 567.562 440.3 554.306 463.06 C 541.05 485.818 525.612 503.458 510.684 518.152 C 496.865 531.758 475.711 546.929 454.452 558.871 C 433.195 570.811 411.833 577.854 411.833 577.854 C 411.833 577.854 399.028 568.23 385.128 555.362 C 371.227 542.491 356.23 526.377 345.93 515.276 C 335.346 503.872 321.099 486.963 308.982 471.742 C 296.869 456.518 287.261 442.981 287.261 442.981 C 287.261 442.981 322.97 445.835 356.581 446.647 C 390.19 447.457 420.878 444.54 447.532 441.302 C 469.797 438.597 502.904 432.217 530.005 424.836 C 557.103 417.454 578.637 410.749 578.637 410.749 Z M 381.112 586.553 C 381.112 586.553 349.985 591.736 323.646 591.633 C 297.308 591.535 274.315 586.984 254.123 581.405 C 235.433 576.239 211.714 565.504 190.744 553.064 C 169.775 540.625 152.996 525.647 152.996 525.647 C 152.996 525.647 154.927 509.744 159.121 491.275 C 163.316 472.8 169.775 451.757 174.237 437.285 C 178.823 422.417 186.343 401.621 193.466 383.519 C 200.594 365.419 207.514 350.33 207.514 350.33 C 207.514 350.33 222.894 382.682 238.999 412.193 C 255.1 441.706 272.97 466.821 289.104 488.286 C 302.576 506.216 324.658 531.699 344.599 551.477 C 364.541 571.256 381.112 586.553 381.112 586.553 Z M 133.274 501.846 C 133.274 501.846 113.219 477.479 100.139 454.618 C 87.057 431.758 79.501 409.57 74.237 389.296 C 69.366 370.524 66.803 344.617 67.092 320.237 C 67.381 295.855 71.962 273.835 71.962 273.835 C 71.962 273.835 86.699 267.557 104.792 261.956 C 122.889 256.349 144.343 251.421 159.105 248.051 C 174.275 244.587 196.043 240.703 215.282 237.82 C 234.522 234.942 251.053 233.391 251.053 233.391 C 251.053 233.391 230.724 262.889 213.217 291.588 C 195.71 320.293 182.892 348.324 172.371 373.028 C 163.58 393.661 152.551 425.525 145.393 452.682 C 138.236 479.844 133.274 501.846 133.274 501.846 Z"/>
    </g>
    <g transform="matrix(0.341978, 0, 0, 0.341978, 8.208615, 6.161749)" style="">
      <title>Text</title>
      <text style="font-family: &quot;Baloo 2&quot;; font-size: 81.9px; font-weight: 300; line-height: 191.825px; white-space: pre;" x="216.363" y="77.257"><title>easy</title>easy</text>
      <text style="font-family: &quot;Baloo 2&quot;; font-size: 81.9px; font-weight: 600; line-height: 191.825px; white-space: pre;" x="216.468" y="159.731"><title>imaging</title>imaging</text>
    </g>
  </g>
</svg>