<?xml version="1.0" encoding="utf-8"?>
<svg viewBox="0 0 189 65" xmlns="http://www.w3.org/2000/svg" xmlns:bx="https://boxy-svg.com" height="65px">
  <defs>
    <radialGradient id="gradient-1" gradientUnits="userSpaceOnUse" cx="152.286" cy="126.898" r="330" gradientTransform="matrix(0.638467, -1.091841, 1.097297, 0.641658, 52.656119, 215.401816)">
      <stop offset="0" style="stop-color: rgb(0, 170, 237);"/>
      <stop offset="1" style="stop-color: rgb(0, 145, 202);"/>
    </radialGradient>
    <linearGradient id="gradient-0" gradientUnits="userSpaceOnUse" x1="330" y1="0" x2="330" y2="660" gradientTransform="matrix(0.980745, -0.195296, 0.195753, 0.983035, -58.734308, 67.665557)">
      <stop offset="0" style="stop-color: rgb(152, 226, 255);"/>
      <stop offset="1" style="stop-color: rgb(78, 193, 239);"/>
    </linearGradient>
    <bx:grid x="0" y="0" width="190" height="80"/>
    <bx:guide x="42.609312751886165" y="40.60588896495875" angle="0"/>
    <bx:guide x="43.2393447626756" y="40.601323515605216" angle="90"/>
    <linearGradient gradientUnits="userSpaceOnUse" x1="40.615" y1="36.706" x2="40.615" y2="49.816" id="gradient-2" gradientTransform="matrix(0.464577, -0.885532, 1.627663, 0.853923, -48.887446, 41.948)">
      <stop offset="0" style="stop-color: rgb(255, 255, 255);"/>
      <stop offset="1" style="stop-color: rgb(212, 243, 255);"/>
    </linearGradient>
    <linearGradient gradientUnits="userSpaceOnUse" x1="40.615" y1="36.706" x2="40.615" y2="49.816" id="gradient-3" gradientTransform="matrix(0.462149, -0.886802, 1.632317, 0.850666, -49.050006, 42.157448)">
      <stop offset="0" style="stop-color: rgb(78, 195, 239);"/>
      <stop offset="1" style="stop-color: rgb(99, 211, 255);"/>
    </linearGradient>
  </defs>
  <g transform="matrix(0.341978, 0, 0, 0.341978, -0.561141, 0.222435)">
    <g transform="matrix(0.283554, 0, 0, 0.283554, -233.25322, -232.583527)" style="transform-origin: 329.929px 326.968px;">
      <title>Logo</title>
      <circle style="fill: url(&quot;#gradient-1&quot;); stroke: url(&quot;#gradient-0&quot;); paint-order: fill; stroke-width: 10.3125px;" cx="329.929" cy="326.968" r="330">
        <title>Main circle</title>
      </circle>
      <g transform="matrix(10.312513, 0, 0, 10.312513, -109.237785, -85.532562)">
        <path style="stroke: rgb(78, 194, 239); fill: rgb(255, 255, 255);" d="M 17.147 38.507 L 17.989 47.117 L 27.215 46.161 L 28.821 41.865 L 26.401 37.718 L 17.147 38.507 Z"/>
        <path style="fill: url(&quot;#gradient-2&quot;); stroke: url(&quot;#gradient-3&quot;);" d="M 29.657 37.361 L 41.181 36.706 L 51.573 44.901 L 51.054 48.55 L 47.621 49.816 L 40.657 44.623 L 30.485 45.763 L 32.081 41.486 L 29.657 37.361 Z"/>
        <path style="fill: rgb(212, 243, 255); stroke: rgb(99, 211, 255);" d="M 54.007 46.831 L 53.505 50.483 L 50.109 51.718 L 57.446 57.176 L 60.687 56.054 L 60.907 52.654 L 54.007 46.831 Z"/>
        <path style="stroke: rgb(99, 211, 255); fill: rgb(179, 233, 255);" d="M 43.211 34.628 L 43.589 33.715 L 44.023 32.774 L 44.517 31.775 L 45.095 30.797 L 45.928 29.712 L 46.891 28.725 L 47.931 27.878 L 49.321 27.026 L 52.212 27.846 L 52.699 30.678 L 51.576 31.328 L 50.746 31.952 L 49.73 32.952 L 49.05 33.937 L 48.48 35.01 L 48.067 36.029 L 47.733 37.03 L 47.414 38.037 L 43.211 34.628 Z"/>
        <path style="stroke: rgb(99, 211, 255); fill: rgb(179, 233, 255);" d="M 51.788 25.044 L 54.527 25.804 L 55.048 28.78 L 56.176 27.797 L 57.187 26.81 L 58.018 25.793 L 58.726 24.626 L 59.327 23.27 L 59.726 21.807 L 58.319 19.526 L 55.26 19.827 L 54.932 20.967 L 54.501 22.06 L 53.847 23.076 L 52.966 24.033 L 51.788 25.044 Z"/>
      </g>
    </g>
    <g transform="matrix(1, 0, 0, 1, -3.848826, -4.564161)" style="">
      <title>Text</title>
      <path d="M 224.881 62.515 L 224.553 57.355 L 249.287 53.997 Q 248.959 49.493 246.175 46.585 Q 243.39 43.678 238.476 43.678 Q 233.398 43.678 230.081 47.323 Q 226.764 50.967 226.764 57.765 L 226.764 59.567 Q 227.338 66.119 231.064 69.517 Q 234.791 72.916 241.261 72.916 Q 244.7 72.916 247.485 71.77 Q 250.27 70.623 251.908 69.313 Q 252.809 69.886 253.341 70.664 Q 253.873 71.442 253.873 72.425 Q 253.873 73.981 252.112 75.332 Q 250.352 76.684 247.444 77.503 Q 244.537 78.322 240.933 78.322 Q 234.627 78.322 229.999 76.029 Q 225.372 73.735 222.874 69.19 Q 220.376 64.644 220.376 58.092 Q 220.376 53.424 221.727 49.78 Q 223.079 46.135 225.495 43.596 Q 227.911 41.057 231.269 39.706 Q 234.627 38.355 238.558 38.355 Q 243.554 38.355 247.362 40.484 Q 251.171 42.613 253.341 46.422 Q 255.511 50.23 255.511 55.144 Q 255.511 56.946 254.692 57.724 Q 253.873 58.502 252.399 58.666 Z M 278.523 72.998 Q 281.963 72.998 284.215 72.302 Q 286.468 71.606 287.451 70.951 L 287.451 59.075 L 277.295 60.14 Q 273.036 60.468 270.989 62.024 Q 268.941 63.58 268.941 66.528 Q 268.941 69.558 271.357 71.278 Q 273.773 72.998 278.523 72.998 Z M 278.442 38.355 Q 285.567 38.355 289.744 41.549 Q 293.921 44.743 293.921 51.622 L 293.921 71.033 Q 293.921 72.834 293.224 73.776 Q 292.528 74.718 291.136 75.537 Q 289.17 76.602 285.894 77.503 Q 282.618 78.404 278.523 78.404 Q 270.825 78.404 266.607 75.373 Q 262.389 72.343 262.389 66.61 Q 262.389 61.287 265.952 58.461 Q 269.514 55.635 275.821 55.062 L 287.451 53.916 L 287.451 51.622 Q 287.451 47.527 284.994 45.644 Q 282.537 43.76 278.36 43.76 Q 275.002 43.76 271.93 44.743 Q 268.859 45.726 266.484 46.954 Q 265.829 46.381 265.297 45.603 Q 264.764 44.825 264.764 44.006 Q 264.764 41.876 267.139 40.73 Q 269.351 39.583 272.258 38.969 Q 275.166 38.355 278.442 38.355 Z M 332.576 67.183 Q 332.576 72.425 328.727 75.373 Q 324.878 78.322 317.588 78.322 Q 311.364 78.322 307.433 76.397 Q 303.502 74.472 303.502 72.179 Q 303.502 71.196 304.034 70.255 Q 304.566 69.313 305.631 68.739 Q 307.842 70.296 310.791 71.606 Q 313.739 72.916 317.507 72.916 Q 326.024 72.916 326.024 67.183 Q 326.024 64.808 324.591 63.293 Q 323.158 61.778 320.373 61.123 L 313.575 59.321 Q 308.579 58.092 306.286 55.513 Q 303.993 52.933 303.993 49.083 Q 303.993 44.743 307.515 41.549 Q 311.036 38.355 318.244 38.355 Q 322.093 38.355 324.959 39.133 Q 327.826 39.911 329.423 41.18 Q 331.02 42.45 331.02 43.924 Q 331.02 44.988 330.488 45.807 Q 329.955 46.626 329.054 47.036 Q 328.072 46.381 326.557 45.603 Q 325.041 44.825 322.994 44.292 Q 320.946 43.76 318.489 43.76 Q 314.886 43.76 312.674 45.152 Q 310.463 46.545 310.463 49.083 Q 310.463 50.885 311.733 52.237 Q 313.002 53.588 315.787 54.243 L 321.438 55.635 Q 327.007 56.946 329.792 59.771 Q 332.576 62.597 332.576 67.183 Z M 348.956 68.821 Q 347.564 66.201 345.598 61.737 Q 343.632 57.273 341.544 51.745 Q 339.456 46.217 337.572 40.484 Q 338.145 39.665 339.087 39.174 Q 340.029 38.682 341.094 38.682 Q 342.486 38.682 343.387 39.419 Q 344.288 40.156 344.861 41.876 Q 347.318 48.756 350.021 55.554 Q 352.723 62.351 355.999 69.64 L 356.327 69.64 Q 358.047 66.201 359.931 61.041 Q 361.814 55.881 363.534 50.148 Q 365.254 44.415 366.401 39.337 Q 366.974 39.092 367.67 38.887 Q 368.366 38.682 369.185 38.682 Q 370.578 38.682 371.478 39.378 Q 372.379 40.074 372.379 41.467 Q 372.379 42.777 371.642 45.848 Q 370.905 48.92 369.636 52.974 Q 368.366 57.028 366.687 61.573 Q 365.008 66.119 363.084 70.5 Q 361.159 74.882 359.193 78.404 Q 355.426 85.365 352.314 89.092 Q 349.202 92.818 346.581 92.818 Q 344.697 92.818 343.673 91.835 Q 342.65 90.852 342.404 89.542 Q 344.206 87.986 346.458 85.406 Q 348.71 82.826 350.799 79.837 Q 352.887 76.848 354.198 74.145 Q 352.805 73.735 351.618 72.671 Q 350.43 71.606 348.956 68.821 Z" style="line-height: 191.825px; text-wrap-mode: nowrap; fill: rgb(255, 255, 255);"/>
      <path d="M 247.344 151.213 L 247.344 125.497 L 257.418 125.497 L 257.418 152.278 Q 257.418 154.08 256.64 155.267 Q 255.862 156.455 254.142 157.52 Q 252.176 158.83 248.778 159.854 Q 245.379 160.878 241.038 160.878 Q 234.568 160.878 229.777 158.707 Q 224.986 156.537 222.365 151.991 Q 219.744 147.446 219.744 140.485 Q 219.744 133.359 222.406 128.773 Q 225.068 124.186 229.572 122.016 Q 234.077 119.846 239.564 119.846 Q 242.594 119.846 245.092 120.583 Q 247.59 121.32 249.146 122.303 L 249.146 130.902 Q 247.836 129.674 245.706 128.773 Q 243.577 127.872 240.792 127.872 Q 237.762 127.872 235.305 129.141 Q 232.848 130.411 231.456 133.236 Q 230.063 136.062 230.063 140.566 Q 230.063 146.955 233.012 149.903 Q 235.96 152.851 240.956 152.851 Q 243.167 152.851 244.724 152.36 Q 246.28 151.869 247.344 151.213 Z M 257.418 127.544 L 247.344 127.626 L 247.344 106.496 Q 247.918 106.332 249.187 106.087 Q 250.457 105.841 251.849 105.841 Q 254.797 105.841 256.108 106.865 Q 257.418 107.888 257.418 110.509 Z M 275 150.476 Q 273.69 147.774 272.011 143.72 Q 270.332 139.666 268.53 134.301 Q 266.728 128.937 264.844 122.467 Q 265.745 121.484 267.138 120.829 Q 268.53 120.173 270.168 120.173 Q 272.297 120.173 273.649 121.115 Q 275 122.057 275.737 124.514 Q 277.867 130.902 280.037 137.127 Q 282.207 143.351 284.664 149.821 L 284.992 149.821 Q 286.548 146.218 288.104 141.344 Q 289.66 136.471 291.093 131.23 Q 292.527 125.988 293.509 121.238 Q 294.492 120.747 295.557 120.46 Q 296.622 120.173 297.85 120.173 Q 299.898 120.173 301.413 121.115 Q 302.928 122.057 302.928 124.268 Q 302.928 126.234 302.232 129.469 Q 301.536 132.704 300.307 136.635 Q 299.079 140.566 297.482 144.825 Q 295.885 149.084 294.124 153.056 Q 292.363 157.028 290.561 160.222 Q 286.384 167.675 282.862 171.484 Q 279.341 175.292 276.065 175.292 Q 273.526 175.292 271.929 173.777 Q 270.332 172.262 270.004 170.05 Q 271.806 168.494 273.813 166.324 Q 275.819 164.154 277.703 161.697 Q 279.586 159.24 280.897 156.865 Q 279.505 156.455 278.112 155.186 Q 276.72 153.916 275 150.476 Z M 345.741 134.424 L 345.741 142.368 L 335.667 142.368 L 335.667 134.833 Q 335.667 131.23 333.62 129.551 Q 331.572 127.872 328.132 127.872 Q 325.594 127.872 323.587 128.486 Q 321.58 129.1 320.024 129.919 L 320.024 142.368 L 309.951 142.368 L 309.951 129.264 Q 309.951 127.299 310.77 126.029 Q 311.589 124.76 313.227 123.695 Q 315.684 122.057 319.574 120.951 Q 323.464 119.846 328.214 119.846 Q 336.486 119.846 341.114 123.531 Q 345.741 127.217 345.741 134.424 Z M 309.951 138.355 L 320.024 138.355 L 320.024 159.567 Q 319.369 159.813 318.141 160.018 Q 316.912 160.222 315.438 160.222 Q 312.653 160.222 311.302 159.199 Q 309.951 158.175 309.951 155.554 Z M 335.667 138.355 L 345.741 138.355 L 345.741 159.567 Q 345.168 159.813 343.898 160.018 Q 342.629 160.222 341.236 160.222 Q 338.37 160.222 337.019 159.199 Q 335.667 158.175 335.667 155.554 Z M 371.526 153.261 Q 373.983 153.261 375.949 152.77 Q 377.915 152.278 378.816 151.705 L 378.816 142.368 L 370.707 143.187 Q 367.35 143.433 365.589 144.62 Q 363.828 145.808 363.828 148.101 Q 363.828 150.476 365.712 151.869 Q 367.595 153.261 371.526 153.261 Z M 371.117 119.846 Q 379.143 119.846 383.893 123.245 Q 388.644 126.643 388.644 133.933 L 388.644 152.77 Q 388.644 154.735 387.702 155.882 Q 386.76 157.028 385.286 157.929 Q 382.992 159.24 379.471 160.1 Q 375.949 160.96 371.526 160.96 Q 363.336 160.96 358.668 157.806 Q 354 154.653 354 148.429 Q 354 142.942 357.481 140.034 Q 360.961 137.127 367.595 136.471 L 378.734 135.325 L 378.734 133.851 Q 378.734 130.575 376.481 129.1 Q 374.229 127.626 370.134 127.626 Q 366.94 127.626 363.91 128.445 Q 360.879 129.264 358.504 130.411 Q 357.685 129.756 357.03 128.609 Q 356.375 127.462 356.375 126.234 Q 356.375 123.286 359.651 121.893 Q 361.944 120.829 365.015 120.337 Q 368.087 119.846 371.117 119.846 Z M 432.753 132.95 L 432.753 142.286 L 422.68 142.286 L 422.68 134.096 Q 422.68 130.902 420.755 129.387 Q 418.83 127.872 415.882 127.872 Q 413.753 127.872 411.992 128.486 Q 410.231 129.1 409.002 129.919 L 409.002 142.286 L 398.929 142.286 L 398.929 129.264 Q 398.929 127.299 399.748 126.029 Q 400.567 124.76 402.205 123.695 Q 404.744 121.975 408.47 120.91 Q 412.197 119.846 416.21 119.846 Q 420.223 119.846 423.581 121.074 Q 426.939 122.303 429.068 124.678 Q 429.641 125.169 430.133 125.661 Q 430.624 126.152 430.952 126.807 Q 431.689 128.036 432.221 129.633 Q 432.753 131.23 432.753 132.95 Z M 456.423 133.769 L 456.423 142.286 L 446.349 142.286 L 446.349 134.096 Q 446.349 130.902 444.547 129.387 Q 442.745 127.872 439.715 127.872 Q 437.504 127.872 435.415 128.773 Q 433.327 129.674 431.853 131.148 L 426.775 125.005 Q 429.314 122.876 432.753 121.361 Q 436.193 119.846 440.943 119.846 Q 445.284 119.846 448.806 121.238 Q 452.328 122.63 454.375 125.743 Q 456.423 128.855 456.423 133.769 Z M 398.929 138.355 L 409.002 138.355 L 409.002 159.567 Q 408.347 159.813 407.119 160.018 Q 405.89 160.222 404.416 160.222 Q 401.631 160.222 400.28 159.199 Q 398.929 158.175 398.929 155.554 Z M 422.68 138.355 L 432.753 138.355 L 432.753 159.567 Q 432.098 159.813 430.829 160.018 Q 429.559 160.222 428.167 160.222 Q 425.301 160.222 423.99 159.199 Q 422.68 158.175 422.68 155.554 Z M 446.349 138.355 L 456.423 138.355 L 456.423 159.567 Q 455.849 159.813 454.58 160.018 Q 453.31 160.222 451.918 160.222 Q 449.052 160.222 447.7 159.199 Q 446.349 158.175 446.349 155.554 Z M 466.486 109.444 Q 466.486 107.069 468.165 105.431 Q 469.844 103.793 472.383 103.793 Q 475.004 103.793 476.601 105.431 Q 478.198 107.069 478.198 109.444 Q 478.198 111.738 476.601 113.417 Q 475.004 115.096 472.383 115.096 Q 469.844 115.096 468.165 113.417 Q 466.486 111.738 466.486 109.444 Z M 467.305 138.109 L 477.461 138.109 L 477.461 159.567 Q 476.806 159.813 475.577 160.018 Q 474.349 160.222 472.874 160.222 Q 470.09 160.222 468.698 159.199 Q 467.305 158.175 467.305 155.554 Z M 477.461 143.269 L 467.305 143.269 L 467.305 121.32 Q 467.96 121.074 469.23 120.869 Q 470.499 120.665 471.974 120.665 Q 474.84 120.665 476.15 121.688 Q 477.461 122.712 477.461 125.415 Z M 508.227 127.954 Q 503.313 127.954 499.996 131.148 Q 496.679 134.342 496.679 140.485 Q 496.679 146.545 499.873 149.657 Q 503.067 152.77 508.145 152.77 Q 511.175 152.77 513.264 151.991 Q 515.352 151.213 516.908 150.313 Q 518.137 151.05 518.833 152.073 Q 519.529 153.097 519.529 154.571 Q 519.529 157.356 516.171 159.117 Q 512.813 160.878 507.326 160.878 Q 501.101 160.878 496.392 158.625 Q 491.683 156.373 489.021 151.787 Q 486.359 147.2 486.359 140.485 Q 486.359 133.523 489.185 128.937 Q 492.011 124.35 496.72 122.098 Q 501.429 119.846 507.08 119.846 Q 512.486 119.846 515.762 121.729 Q 519.038 123.613 519.038 126.398 Q 519.038 127.626 518.382 128.691 Q 517.727 129.756 516.826 130.411 Q 515.188 129.428 513.141 128.691 Q 511.093 127.954 508.227 127.954 Z M 557.744 148.756 Q 557.744 154.489 553.485 157.724 Q 549.226 160.96 541.118 160.96 Q 534.566 160.96 530.389 158.994 Q 526.213 157.028 526.213 153.752 Q 526.213 152.36 526.868 151.172 Q 527.523 149.985 528.588 149.33 Q 530.881 150.804 533.911 151.951 Q 536.941 153.097 540.791 153.097 Q 547.752 153.097 547.752 148.838 Q 547.752 147.037 546.524 145.931 Q 545.295 144.825 542.756 144.334 L 538.088 143.105 Q 532.109 141.795 529.202 139.01 Q 526.294 136.226 526.294 131.557 Q 526.294 126.398 530.553 123.081 Q 534.812 119.764 542.347 119.764 Q 546.278 119.764 549.39 120.542 Q 552.502 121.32 554.263 122.794 Q 556.024 124.268 556.024 126.316 Q 556.024 127.708 555.41 128.814 Q 554.796 129.919 553.813 130.493 Q 552.83 129.919 551.151 129.223 Q 549.472 128.527 547.343 128.077 Q 545.213 127.626 543.084 127.626 Q 539.89 127.626 538.047 128.65 Q 536.204 129.674 536.204 131.557 Q 536.204 132.95 537.269 133.933 Q 538.334 134.915 540.873 135.489 L 545.05 136.471 Q 551.683 138.028 554.714 141.017 Q 557.744 144.006 557.744 148.756 Z" style="line-height: 191.825px; text-wrap-mode: nowrap; fill: rgb(255, 255, 255);"/>
    </g>
  </g>
</svg>