<?xml version="1.0" encoding="utf-8"?>
<svg viewBox="0 0 243 58" xmlns="http://www.w3.org/2000/svg" xmlns:bx="https://boxy-svg.com">
  <defs>
    <bx:grid x="0" y="0" width="190" height="80"/>
    <radialGradient gradientUnits="userSpaceOnUse" cx="368.637" cy="503.712" r="470" id="gradient-2" gradientTransform="matrix(1.355421, -0.173762, 0.163223, 1.273213, 88.174377, -170.614502)">
      <stop offset="0" style="stop-color: rgb(0, 170, 237);"/>
      <stop offset="1" style="stop-color: rgb(0, 145, 202);"/>
    </radialGradient>
  </defs>
  <g transform="matrix(0.342024, 0, 0, 0.342024, -3.653638, -3.181479)">
    <g transform="matrix(0.174204, 0, 0, 0.174204, 7.222769, 5.247252)">
      <title>Logo</title>
      <rect style="stroke: rgb(121, 212, 248); stroke-linecap: round; stroke-miterlimit: 4; stroke-dasharray: none; stroke-opacity: 1; paint-order: stroke markers; fill-opacity: 1; fill: url(&quot;#gradient-2&quot;); stroke-width: 33.5717px;" id="rect949" width="940" height="940" x="40" y="40" ry="144.011"/>
      <path style="fill:none;fill-opacity:1;stroke:#4ec1ef;stroke-width:99.9999;stroke-linecap:round;stroke-linejoin:miter;stroke-miterlimit:4;stroke-dasharray:none;stroke-opacity:1" d="m 170.00001,210 h 97.72079 c 0,0 143.41401,602.97772 582.27934,602.97772" id="path961"/>
      <path style="fill:none;fill-opacity:1;stroke:#b3e9ff;stroke-width:40;stroke-linecap:round;stroke-linejoin:miter;stroke-miterlimit:4;stroke-dasharray:none;stroke-opacity:1" d="m 170.00001,210 h 97.72079 c 0,0 143.41401,602.97772 582.27934,602.97772" id="path951"/>
    </g>
    <g transform="matrix(1, 0, 0, 1, -3.848826, -4.564161)" style="">
      <title>Text</title>
      <path d="M 224.881 62.515 L 224.553 57.355 L 249.287 53.997 Q 248.959 49.493 246.175 46.585 Q 243.39 43.678 238.476 43.678 Q 233.398 43.678 230.081 47.323 Q 226.764 50.967 226.764 57.765 L 226.764 59.567 Q 227.338 66.119 231.064 69.517 Q 234.79 72.916 241.261 72.916 Q 244.7 72.916 247.485 71.77 Q 250.27 70.623 251.908 69.313 Q 252.808 69.886 253.341 70.664 Q 253.873 71.442 253.873 72.425 Q 253.873 73.981 252.112 75.332 Q 250.351 76.684 247.444 77.503 Q 244.537 78.322 240.933 78.322 Q 234.627 78.322 229.999 76.028 Q 225.372 73.735 222.874 69.19 Q 220.376 64.644 220.376 58.092 Q 220.376 53.424 221.727 49.78 Q 223.079 46.135 225.495 43.596 Q 227.911 41.057 231.269 39.706 Q 234.627 38.354 238.558 38.354 Q 243.554 38.354 247.362 40.484 Q 251.17 42.613 253.341 46.422 Q 255.511 50.23 255.511 55.144 Q 255.511 56.946 254.692 57.724 Q 253.873 58.502 252.399 58.666 Z M 278.524 72.998 Q 281.964 72.998 284.216 72.302 Q 286.468 71.606 287.451 70.951 L 287.451 59.075 L 277.295 60.14 Q 273.036 60.467 270.989 62.024 Q 268.941 63.58 268.941 66.528 Q 268.941 69.558 271.357 71.278 Q 273.774 72.998 278.524 72.998 Z M 278.442 38.354 Q 285.567 38.354 289.744 41.549 Q 293.921 44.743 293.921 51.622 L 293.921 71.033 Q 293.921 72.834 293.225 73.776 Q 292.529 74.718 291.136 75.537 Q 289.171 76.602 285.895 77.503 Q 282.619 78.404 278.524 78.404 Q 270.825 78.404 266.607 75.373 Q 262.389 72.343 262.389 66.61 Q 262.389 61.286 265.952 58.461 Q 269.515 55.635 275.821 55.062 L 287.451 53.915 L 287.451 51.622 Q 287.451 47.527 284.994 45.644 Q 282.537 43.76 278.36 43.76 Q 275.002 43.76 271.931 44.743 Q 268.86 45.725 266.484 46.954 Q 265.829 46.381 265.297 45.603 Q 264.765 44.825 264.765 44.006 Q 264.765 41.876 267.14 40.73 Q 269.351 39.583 272.258 38.969 Q 275.166 38.354 278.442 38.354 Z M 332.577 67.183 Q 332.577 72.425 328.728 75.373 Q 324.878 78.322 317.589 78.322 Q 311.365 78.322 307.434 76.397 Q 303.503 74.472 303.503 72.179 Q 303.503 71.196 304.035 70.255 Q 304.567 69.313 305.632 68.739 Q 307.843 70.295 310.792 71.606 Q 313.74 72.916 317.507 72.916 Q 326.025 72.916 326.025 67.183 Q 326.025 64.808 324.592 63.293 Q 323.159 61.778 320.374 61.123 L 313.576 59.321 Q 308.58 58.092 306.287 55.513 Q 303.994 52.933 303.994 49.083 Q 303.994 44.743 307.516 41.549 Q 311.037 38.354 318.245 38.354 Q 322.094 38.354 324.96 39.133 Q 327.827 39.911 329.424 41.18 Q 331.021 42.449 331.021 43.924 Q 331.021 44.988 330.489 45.807 Q 329.956 46.626 329.055 47.036 Q 328.073 46.381 326.557 45.603 Q 325.042 44.825 322.995 44.292 Q 320.947 43.76 318.49 43.76 Q 314.887 43.76 312.675 45.152 Q 310.464 46.544 310.464 49.083 Q 310.464 50.885 311.733 52.237 Q 313.003 53.588 315.788 54.243 L 321.439 55.635 Q 327.008 56.946 329.792 59.771 Q 332.577 62.597 332.577 67.183 Z M 348.956 68.821 Q 347.563 66.2 345.598 61.737 Q 343.632 57.273 341.544 51.745 Q 339.455 46.217 337.572 40.484 Q 338.145 39.665 339.087 39.173 Q 340.029 38.682 341.093 38.682 Q 342.486 38.682 343.387 39.419 Q 344.287 40.156 344.861 41.876 Q 347.318 48.756 350.02 55.553 Q 352.723 62.351 355.999 69.64 L 356.327 69.64 Q 358.047 66.2 359.93 61.041 Q 361.814 55.881 363.534 50.148 Q 365.254 44.415 366.4 39.337 Q 366.974 39.092 367.67 38.887 Q 368.366 38.682 369.185 38.682 Q 370.577 38.682 371.478 39.378 Q 372.379 40.074 372.379 41.467 Q 372.379 42.777 371.642 45.848 Q 370.905 48.92 369.635 52.974 Q 368.366 57.028 366.687 61.573 Q 365.008 66.119 363.083 70.5 Q 361.159 74.882 359.193 78.404 Q 355.426 85.365 352.314 89.092 Q 349.201 92.818 346.581 92.818 Q 344.697 92.818 343.673 91.835 Q 342.649 90.852 342.404 89.542 Q 344.206 87.986 346.458 85.406 Q 348.71 82.826 350.798 79.837 Q 352.887 76.847 354.197 74.145 Q 352.805 73.735 351.617 72.671 Q 350.43 71.606 348.956 68.821 Z" style="line-height: 191.825px; text-wrap-mode: nowrap;"/>
      <path d="M 231.783 130.247 L 231.783 141.467 L 221.71 141.467 L 221.71 129.428 Q 221.71 127.381 222.692 125.947 Q 223.675 124.514 225.477 123.286 Q 227.934 121.811 231.701 120.829 Q 235.469 119.846 239.809 119.846 Q 247.508 119.846 247.508 124.596 Q 247.508 125.743 247.18 126.684 Q 246.853 127.626 246.361 128.363 Q 245.542 128.2 244.314 128.077 Q 243.085 127.954 241.693 127.954 Q 238.745 127.954 236.165 128.568 Q 233.585 129.182 231.783 130.247 Z M 221.71 138.109 L 231.783 138.601 L 231.783 159.567 Q 231.128 159.813 229.9 160.018 Q 228.671 160.222 227.197 160.222 Q 224.412 160.222 223.061 159.199 Q 221.71 158.175 221.71 155.554 Z M 257.383 145.48 L 256.974 138.437 L 278.923 135.161 Q 278.677 132.049 276.548 129.756 Q 274.418 127.462 270.323 127.462 Q 266.146 127.462 263.362 130.37 Q 260.577 133.277 260.495 138.683 L 260.741 142.942 Q 261.478 148.183 264.795 150.64 Q 268.112 153.097 273.19 153.097 Q 276.63 153.097 279.578 152.073 Q 282.526 151.05 284.246 149.821 Q 285.393 150.558 286.089 151.664 Q 286.785 152.77 286.785 154.08 Q 286.785 156.209 284.901 157.724 Q 283.018 159.24 279.824 160.059 Q 276.63 160.878 272.535 160.878 Q 266.228 160.878 261.355 158.543 Q 256.482 156.209 253.738 151.541 Q 250.995 146.873 250.995 139.911 Q 250.995 134.915 252.551 131.148 Q 254.107 127.381 256.769 124.883 Q 259.431 122.385 262.952 121.115 Q 266.474 119.846 270.323 119.846 Q 275.729 119.846 279.783 122.016 Q 283.837 124.186 286.171 128.036 Q 288.505 131.885 288.505 136.881 Q 288.505 139.174 287.317 140.28 Q 286.13 141.385 284.001 141.631 Z M 304.916 131.394 L 304.916 123.531 L 321.378 123.531 Q 321.706 124.105 322.074 125.128 Q 322.443 126.152 322.443 127.462 Q 322.443 129.51 321.501 130.452 Q 320.559 131.394 318.839 131.394 Z M 306.472 119.6 L 306.472 130.165 L 296.808 130.165 L 296.808 119.191 Q 296.808 114.031 298.896 110.796 Q 300.985 107.561 304.711 106.046 Q 308.438 104.53 313.188 104.53 Q 318.512 104.53 321.296 105.923 Q 324.081 107.315 324.081 110.1 Q 324.081 111.328 323.548 112.352 Q 323.016 113.376 322.279 114.031 Q 320.723 113.376 318.798 112.966 Q 316.874 112.557 314.744 112.557 Q 310.403 112.557 308.438 114.195 Q 306.472 115.833 306.472 119.6 Z M 296.808 127.299 L 306.882 127.299 L 306.882 159.567 Q 306.227 159.813 304.998 160.018 Q 303.77 160.222 302.295 160.222 Q 299.511 160.222 298.159 159.199 Q 296.808 158.175 296.808 155.554 Z M 331.042 138.109 L 341.116 138.601 L 341.116 159.567 Q 340.461 159.813 339.232 160.018 Q 338.004 160.222 336.53 160.222 Q 333.745 160.222 332.394 159.199 Q 331.042 158.175 331.042 155.554 Z M 341.116 143.761 L 331.042 143.269 L 331.042 106.496 Q 331.616 106.332 332.885 106.087 Q 334.154 105.841 335.547 105.841 Q 338.495 105.841 339.806 106.865 Q 341.116 107.888 341.116 110.509 Z M 356.529 145.48 L 356.12 138.437 L 378.069 135.161 Q 377.823 132.049 375.694 129.756 Q 373.565 127.462 369.47 127.462 Q 365.293 127.462 362.508 130.37 Q 359.724 133.277 359.642 138.683 L 359.887 142.942 Q 360.624 148.183 363.941 150.64 Q 367.258 153.097 372.336 153.097 Q 375.776 153.097 378.724 152.073 Q 381.673 151.05 383.393 149.821 Q 384.539 150.558 385.235 151.664 Q 385.932 152.77 385.932 154.08 Q 385.932 156.209 384.048 157.724 Q 382.164 159.24 378.97 160.059 Q 375.776 160.878 371.681 160.878 Q 365.375 160.878 360.502 158.543 Q 355.629 156.209 352.885 151.541 Q 350.141 146.873 350.141 139.911 Q 350.141 134.915 351.697 131.148 Q 353.253 127.381 355.915 124.883 Q 358.577 122.385 362.099 121.115 Q 365.62 119.846 369.47 119.846 Q 374.875 119.846 378.929 122.016 Q 382.983 124.186 385.317 128.036 Q 387.651 131.885 387.651 136.881 Q 387.651 139.174 386.464 140.28 Q 385.276 141.385 383.147 141.631 Z M 415.692 127.954 Q 410.778 127.954 407.461 131.148 Q 404.144 134.342 404.144 140.485 Q 404.144 146.545 407.339 149.657 Q 410.533 152.77 415.61 152.77 Q 418.641 152.77 420.729 151.991 Q 422.818 151.213 424.374 150.313 Q 425.602 151.05 426.298 152.073 Q 426.995 153.097 426.995 154.571 Q 426.995 157.356 423.637 159.117 Q 420.279 160.878 414.791 160.878 Q 408.567 160.878 403.858 158.625 Q 399.149 156.373 396.487 151.787 Q 393.825 147.2 393.825 140.485 Q 393.825 133.523 396.651 128.937 Q 399.476 124.35 404.185 122.098 Q 408.895 119.846 414.546 119.846 Q 419.951 119.846 423.227 121.729 Q 426.503 123.613 426.503 126.398 Q 426.503 127.626 425.848 128.691 Q 425.193 129.756 424.292 130.411 Q 422.654 129.428 420.606 128.691 Q 418.559 127.954 415.692 127.954 Z M 435.451 138.109 L 445.525 138.109 L 445.525 147.774 Q 445.525 150.476 447.122 151.623 Q 448.719 152.77 451.667 152.77 Q 452.978 152.77 454.493 152.442 Q 456.008 152.114 457.073 151.623 Q 457.646 152.278 458.137 153.179 Q 458.629 154.08 458.629 155.39 Q 458.629 157.765 456.377 159.322 Q 454.124 160.878 449.374 160.878 Q 442.904 160.878 439.178 157.97 Q 435.451 155.063 435.451 148.511 Z M 441.594 129.756 L 441.594 121.811 L 457.646 121.811 Q 457.974 122.385 458.342 123.449 Q 458.711 124.514 458.711 125.661 Q 458.711 127.708 457.728 128.732 Q 456.745 129.756 455.189 129.756 Z M 445.525 140.321 L 435.451 140.321 L 435.451 110.837 Q 436.106 110.591 437.376 110.345 Q 438.645 110.1 440.038 110.1 Q 442.904 110.1 444.214 111.123 Q 445.525 112.147 445.525 114.768 Z M 504.026 140.321 Q 504.026 146.627 501.572 151.237 Q 499.117 155.848 494.645 158.363 Q 490.174 160.878 484.125 160.878 Q 478.079 160.878 473.567 158.38 Q 469.055 155.882 466.557 151.295 Q 464.059 146.709 464.059 140.321 Q 464.059 134.011 466.598 129.426 Q 469.137 124.842 473.641 122.344 Q 478.146 119.846 484.112 119.846 Q 490.077 119.846 494.551 122.375 Q 499.026 124.905 501.526 129.501 Q 504.026 134.096 504.026 140.321 Z M 484.072 127.872 Q 479.62 127.872 477.04 131.148 Q 474.46 134.424 474.46 140.321 Q 474.46 146.381 477.009 149.616 Q 479.557 152.851 484.125 152.851 Q 488.629 152.851 491.168 149.575 Q 493.707 146.299 493.707 140.321 Q 493.707 134.506 491.149 131.189 Q 488.591 127.872 484.072 127.872 Z M 546.436 132.95 L 546.436 142.286 L 536.362 142.286 L 536.362 134.096 Q 536.362 130.902 534.437 129.387 Q 532.513 127.872 529.564 127.872 Q 527.435 127.872 525.674 128.486 Q 523.913 129.1 522.685 129.919 L 522.685 142.286 L 512.611 142.286 L 512.611 129.264 Q 512.611 127.299 513.43 126.029 Q 514.249 124.76 515.887 123.695 Q 518.426 121.975 522.152 120.91 Q 525.879 119.846 529.892 119.846 Q 533.905 119.846 537.263 121.074 Q 540.621 122.303 542.75 124.678 Q 543.324 125.169 543.815 125.661 Q 544.306 126.152 544.634 126.807 Q 545.371 128.036 545.903 129.633 Q 546.436 131.23 546.436 132.95 Z M 570.105 133.769 L 570.105 142.286 L 560.031 142.286 L 560.031 134.096 Q 560.031 130.902 558.229 129.387 Q 556.428 127.872 553.397 127.872 Q 551.186 127.872 549.098 128.773 Q 547.009 129.674 545.535 131.148 L 540.457 125.005 Q 542.996 122.876 546.436 121.361 Q 549.876 119.846 554.626 119.846 Q 558.967 119.846 562.488 121.238 Q 566.01 122.63 568.057 125.743 Q 570.105 128.855 570.105 133.769 Z M 512.611 138.355 L 522.685 138.355 L 522.685 159.567 Q 522.03 159.813 520.801 160.018 Q 519.573 160.222 518.098 160.222 Q 515.314 160.222 513.962 159.199 Q 512.611 158.175 512.611 155.554 Z M 536.362 138.355 L 546.436 138.355 L 546.436 159.567 Q 545.781 159.813 544.511 160.018 Q 543.242 160.222 541.849 160.222 Q 538.983 160.222 537.673 159.199 Q 536.362 158.175 536.362 155.554 Z M 560.031 138.355 L 570.105 138.355 L 570.105 159.567 Q 569.532 159.813 568.262 160.018 Q 566.993 160.222 565.6 160.222 Q 562.734 160.222 561.383 159.199 Q 560.031 158.175 560.031 155.554 Z M 585.086 145.48 L 584.677 138.437 L 606.626 135.161 Q 606.38 132.049 604.251 129.756 Q 602.121 127.462 598.026 127.462 Q 593.849 127.462 591.065 130.37 Q 588.28 133.277 588.198 138.683 L 588.444 142.942 Q 589.181 148.183 592.498 150.64 Q 595.815 153.097 600.893 153.097 Q 604.333 153.097 607.281 152.073 Q 610.229 151.05 611.949 149.821 Q 613.096 150.558 613.792 151.664 Q 614.488 152.77 614.488 154.08 Q 614.488 156.209 612.604 157.724 Q 610.721 159.24 607.527 160.059 Q 604.333 160.878 600.238 160.878 Q 593.931 160.878 589.058 158.543 Q 584.185 156.209 581.441 151.541 Q 578.698 146.873 578.698 139.911 Q 578.698 134.915 580.254 131.148 Q 581.81 127.381 584.472 124.883 Q 587.134 122.385 590.655 121.115 Q 594.177 119.846 598.026 119.846 Q 603.432 119.846 607.486 122.016 Q 611.54 124.186 613.874 128.036 Q 616.208 131.885 616.208 136.881 Q 616.208 139.174 615.02 140.28 Q 613.833 141.385 611.704 141.631 Z M 624.429 138.109 L 634.503 138.109 L 634.503 147.774 Q 634.503 150.476 636.1 151.623 Q 637.697 152.77 640.645 152.77 Q 641.956 152.77 643.471 152.442 Q 644.986 152.114 646.051 151.623 Q 646.624 152.278 647.115 153.179 Q 647.607 154.08 647.607 155.39 Q 647.607 157.765 645.355 159.322 Q 643.102 160.878 638.352 160.878 Q 631.882 160.878 628.156 157.97 Q 624.429 155.063 624.429 148.511 Z M 630.572 129.756 L 630.572 121.811 L 646.624 121.811 Q 646.952 122.385 647.32 123.449 Q 647.689 124.514 647.689 125.661 Q 647.689 127.708 646.706 128.732 Q 645.723 129.756 644.167 129.756 Z M 634.503 140.321 L 624.429 140.321 L 624.429 110.837 Q 625.084 110.591 626.354 110.345 Q 627.623 110.1 629.015 110.1 Q 631.882 110.1 633.192 111.123 Q 634.503 112.147 634.503 114.768 Z M 665.872 130.247 L 665.872 141.467 L 655.798 141.467 L 655.798 129.428 Q 655.798 127.381 656.781 125.947 Q 657.763 124.514 659.565 123.286 Q 662.022 121.811 665.79 120.829 Q 669.557 119.846 673.898 119.846 Q 681.596 119.846 681.596 124.596 Q 681.596 125.743 681.269 126.684 Q 680.941 127.626 680.45 128.363 Q 679.631 128.2 678.402 128.077 Q 677.174 127.954 675.781 127.954 Q 672.833 127.954 670.253 128.568 Q 667.673 129.182 665.872 130.247 Z M 655.798 138.109 L 665.872 138.601 L 665.872 159.567 Q 665.216 159.813 663.988 160.018 Q 662.759 160.222 661.285 160.222 Q 658.501 160.222 657.149 159.199 Q 655.798 158.175 655.798 155.554 Z M 696.494 150.476 Q 695.183 147.774 693.504 143.72 Q 691.825 139.666 690.024 134.301 Q 688.222 128.937 686.338 122.467 Q 687.239 121.484 688.631 120.829 Q 690.024 120.173 691.662 120.173 Q 693.791 120.173 695.142 121.115 Q 696.494 122.057 697.231 124.514 Q 699.36 130.902 701.53 137.127 Q 703.701 143.351 706.158 149.821 L 706.485 149.821 Q 708.042 146.218 709.598 141.344 Q 711.154 136.471 712.587 131.23 Q 714.02 125.988 715.003 121.238 Q 715.986 120.747 717.051 120.46 Q 718.115 120.173 719.344 120.173 Q 721.391 120.173 722.906 121.115 Q 724.422 122.057 724.422 124.268 Q 724.422 126.234 723.725 129.469 Q 723.029 132.704 721.801 136.635 Q 720.572 140.566 718.975 144.825 Q 717.378 149.084 715.617 153.056 Q 713.856 157.028 712.055 160.222 Q 707.878 167.675 704.356 171.484 Q 700.834 175.292 697.558 175.292 Q 695.019 175.292 693.422 173.777 Q 691.825 172.262 691.498 170.05 Q 693.3 168.494 695.306 166.324 Q 697.313 164.154 699.196 161.697 Q 701.08 159.24 702.39 156.865 Q 700.998 156.455 699.606 155.186 Q 698.214 153.916 696.494 150.476 Z" style="line-height: 191.825px; text-wrap-mode: nowrap;"/>
    </g>
  </g>
</svg>