<?xml version="1.0" encoding="utf-8"?>
<svg viewBox="0 0 170 65" xmlns="http://www.w3.org/2000/svg" xmlns:bx="https://boxy-svg.com" height="32px" width="84px">
  <defs>
    <bx:grid x="0" y="0" width="190" height="80"/>
    <radialGradient id="gradient-6" gradientUnits="userSpaceOnUse" cx="152.286" cy="126.898" r="330" gradientTransform="matrix(0.638467, -1.091841, 1.097297, 0.641658, 52.656119, 215.401816)">
      <stop offset="0" style="stop-color: rgb(0, 170, 237);"/>
      <stop offset="1" style="stop-color: rgb(0, 145, 202);"/>
    </radialGradient>
    <linearGradient id="gradient-7" gradientUnits="userSpaceOnUse" x1="330" y1="0" x2="330" y2="660" gradientTransform="matrix(0.980745, -0.195296, 0.195753, 0.983035, -58.734308, 67.665557)">
      <stop offset="0" style="stop-color: rgb(152, 226, 255);"/>
      <stop offset="1" style="stop-color: rgb(78, 193, 239);"/>
    </linearGradient>
    <linearGradient gradientUnits="userSpaceOnUse" x1="330.905" y1="39.833" x2="330.905" y2="619.809" id="gradient-0" gradientTransform="matrix(0.864946, -0.286448, 0.284727, 0.859748, -50.809255, 138.160353)">
      <stop offset="0" style="stop-color: rgb(212, 243, 255);"/>
      <stop offset="1" style="stop-color: rgb(179, 233, 255);"/>
    </linearGradient>
    <linearGradient gradientUnits="userSpaceOnUse" x1="330.31" y1="31.022" x2="330.31" y2="621.634" id="gradient-1" gradientTransform="matrix(0.865542, -0.226696, 0.224772, 0.858198, -45.706948, 126.860853)">
      <stop offset="0" style="stop-color: rgb(1, 155, 215);"/>
      <stop offset="1" style="stop-color: rgb(4, 132, 182);"/>
    </linearGradient>
  </defs>
  <g transform="matrix(1, 0, 0, 1, -10.099999, -7.500001)">
    <g transform="matrix(0.09697, 0, 0, 0.09697, 10.606886, 8.294015)">
      <title>Logo</title>
      <circle style="paint-order: fill; stroke-width: 10.3125px; fill: url(&quot;#gradient-6&quot;); stroke: url(&quot;#gradient-7&quot;);" cx="329.929" cy="326.968" r="330">
        <title>Main circle</title>
      </circle>
      <path style="stroke-width: 10.4762px; fill: url(&quot;#gradient-0&quot;); stroke: url(&quot;#gradient-1&quot;);" d="M 275.669 68.276 C 275.669 68.276 306.801 63.093 333.139 63.195 C 359.477 63.295 382.469 67.845 402.663 73.425 C 421.352 78.589 445.069 89.326 466.04 101.764 C 487.01 114.204 503.788 129.183 503.788 129.183 C 503.788 129.183 501.859 145.085 497.663 163.553 C 493.468 182.03 487.01 203.073 482.549 217.546 C 477.963 232.413 470.443 253.207 463.318 271.311 C 456.191 289.411 449.272 304.499 449.272 304.499 C 449.272 304.499 433.891 272.148 417.786 242.637 C 401.683 213.121 383.815 188.007 367.68 166.543 C 354.208 148.613 332.128 123.131 312.185 103.353 C 292.244 83.573 275.669 68.276 275.669 68.276 Z M 79.852 245.036 C 79.852 245.036 90.926 215.484 104.183 192.725 C 117.439 169.967 132.876 152.328 147.803 137.633 C 161.621 124.026 182.777 108.856 204.037 96.914 C 225.294 84.973 246.656 77.932 246.656 77.932 C 246.656 77.932 259.459 87.556 273.359 100.424 C 287.261 113.294 302.258 129.408 312.558 140.509 C 323.143 151.913 337.39 168.823 349.506 184.043 C 361.618 199.266 371.227 212.804 371.227 212.804 C 371.227 212.804 335.518 209.95 301.908 209.139 C 268.298 208.327 237.61 211.245 210.957 214.484 C 188.692 217.188 155.583 223.569 128.483 230.949 C 101.385 238.331 79.852 245.036 79.852 245.036 Z M 526.797 152.772 C 526.797 152.772 546.855 177.14 559.936 200.002 C 573.019 222.86 580.575 245.048 585.84 265.323 C 590.709 284.095 593.274 310 592.984 334.382 C 592.697 358.762 588.113 380.784 588.113 380.784 C 588.113 380.784 573.378 387.059 555.285 392.663 C 537.188 398.267 515.733 403.197 500.971 406.568 C 485.801 410.032 464.034 413.916 444.792 416.799 C 425.554 419.675 409.025 421.228 409.025 421.228 C 409.025 421.228 429.352 391.729 446.859 363.03 C 464.367 334.326 477.184 306.295 487.705 281.59 C 496.497 260.958 507.524 229.094 514.683 201.936 C 521.839 174.774 526.797 152.772 526.797 152.772 Z M 578.637 410.749 C 578.637 410.749 567.562 440.3 554.306 463.06 C 541.05 485.818 525.612 503.458 510.684 518.152 C 496.865 531.758 475.711 546.929 454.452 558.871 C 433.195 570.811 411.833 577.854 411.833 577.854 C 411.833 577.854 399.028 568.23 385.128 555.362 C 371.227 542.491 356.23 526.377 345.93 515.276 C 335.346 503.872 321.099 486.963 308.982 471.742 C 296.869 456.518 287.261 442.981 287.261 442.981 C 287.261 442.981 322.97 445.835 356.581 446.647 C 390.19 447.457 420.878 444.54 447.532 441.302 C 469.797 438.597 502.904 432.217 530.005 424.836 C 557.103 417.454 578.637 410.749 578.637 410.749 Z M 381.112 586.553 C 381.112 586.553 349.985 591.736 323.646 591.633 C 297.308 591.535 274.315 586.984 254.123 581.405 C 235.433 576.239 211.714 565.504 190.744 553.064 C 169.775 540.625 152.996 525.647 152.996 525.647 C 152.996 525.647 154.927 509.744 159.121 491.275 C 163.316 472.8 169.775 451.757 174.237 437.285 C 178.823 422.417 186.343 401.621 193.466 383.519 C 200.594 365.419 207.514 350.33 207.514 350.33 C 207.514 350.33 222.894 382.682 238.999 412.193 C 255.1 441.706 272.97 466.821 289.104 488.286 C 302.576 506.216 324.658 531.699 344.599 551.477 C 364.541 571.256 381.112 586.553 381.112 586.553 Z M 133.274 501.846 C 133.274 501.846 113.219 477.479 100.139 454.618 C 87.057 431.758 79.501 409.57 74.237 389.296 C 69.366 370.524 66.803 344.617 67.092 320.237 C 67.381 295.855 71.962 273.835 71.962 273.835 C 71.962 273.835 86.699 267.557 104.792 261.956 C 122.889 256.349 144.343 251.421 159.105 248.051 C 174.275 244.587 196.043 240.703 215.282 237.82 C 234.522 234.942 251.053 233.391 251.053 233.391 C 251.053 233.391 230.724 262.889 213.217 291.588 C 195.71 320.293 182.892 348.324 172.371 373.028 C 163.58 393.661 152.551 425.525 145.393 452.682 C 138.236 479.844 133.274 501.846 133.274 501.846 Z"/>
    </g>
    <g transform="matrix(0.341978, 0, 0, 0.341978, 8.208615, 6.161749)" style="">
      <title>Text</title>
      <path d="M 224.881 62.515 L 224.553 57.355 L 249.287 53.997 Q 248.959 49.493 246.175 46.585 Q 243.39 43.678 238.476 43.678 Q 233.398 43.678 230.081 47.323 Q 226.764 50.967 226.764 57.765 L 226.764 59.567 Q 227.338 66.119 231.064 69.517 Q 234.791 72.916 241.261 72.916 Q 244.7 72.916 247.485 71.77 Q 250.27 70.623 251.908 69.313 Q 252.809 69.886 253.341 70.664 Q 253.873 71.442 253.873 72.425 Q 253.873 73.981 252.112 75.332 Q 250.352 76.684 247.444 77.503 Q 244.537 78.322 240.933 78.322 Q 234.627 78.322 229.999 76.029 Q 225.372 73.735 222.874 69.19 Q 220.376 64.644 220.376 58.092 Q 220.376 53.424 221.727 49.78 Q 223.079 46.135 225.495 43.596 Q 227.911 41.057 231.269 39.706 Q 234.627 38.355 238.558 38.355 Q 243.554 38.355 247.362 40.484 Q 251.171 42.613 253.341 46.422 Q 255.511 50.23 255.511 55.144 Q 255.511 56.946 254.692 57.724 Q 253.873 58.502 252.399 58.666 Z M 278.524 72.998 Q 281.964 72.998 284.216 72.302 Q 286.469 71.606 287.452 70.951 L 287.452 59.075 L 277.296 60.14 Q 273.037 60.468 270.99 62.024 Q 268.942 63.58 268.942 66.528 Q 268.942 69.558 271.358 71.278 Q 273.774 72.998 278.524 72.998 Z M 278.443 38.355 Q 285.568 38.355 289.745 41.549 Q 293.922 44.743 293.922 51.622 L 293.922 71.033 Q 293.922 72.834 293.225 73.776 Q 292.529 74.718 291.137 75.537 Q 289.171 76.602 285.895 77.503 Q 282.619 78.404 278.524 78.404 Q 270.826 78.404 266.608 75.373 Q 262.39 72.343 262.39 66.61 Q 262.39 61.287 265.953 58.461 Q 269.515 55.635 275.822 55.062 L 287.452 53.916 L 287.452 51.622 Q 287.452 47.527 284.995 45.644 Q 282.538 43.76 278.361 43.76 Q 275.003 43.76 271.931 44.743 Q 268.86 45.726 266.485 46.954 Q 265.83 46.381 265.298 45.603 Q 264.765 44.825 264.765 44.006 Q 264.765 41.876 267.14 40.73 Q 269.352 39.583 272.259 38.969 Q 275.167 38.355 278.443 38.355 Z M 332.578 67.183 Q 332.578 72.425 328.728 75.373 Q 324.879 78.322 317.59 78.322 Q 311.365 78.322 307.434 76.397 Q 303.503 74.472 303.503 72.179 Q 303.503 71.196 304.035 70.255 Q 304.568 69.313 305.632 68.739 Q 307.844 70.296 310.792 71.606 Q 313.741 72.916 317.508 72.916 Q 326.026 72.916 326.026 67.183 Q 326.026 64.808 324.592 63.293 Q 323.159 61.778 320.374 61.123 L 313.577 59.321 Q 308.581 58.092 306.288 55.513 Q 303.994 52.933 303.994 49.083 Q 303.994 44.743 307.516 41.549 Q 311.038 38.355 318.245 38.355 Q 322.094 38.355 324.961 39.133 Q 327.827 39.911 329.424 41.18 Q 331.021 42.45 331.021 43.924 Q 331.021 44.988 330.489 45.807 Q 329.957 46.626 329.056 47.036 Q 328.073 46.381 326.558 45.603 Q 325.043 44.825 322.995 44.292 Q 320.948 43.76 318.491 43.76 Q 314.887 43.76 312.676 45.152 Q 310.465 46.545 310.465 49.083 Q 310.465 50.885 311.734 52.237 Q 313.003 53.588 315.788 54.243 L 321.439 55.635 Q 327.008 56.946 329.793 59.771 Q 332.578 62.597 332.578 67.183 Z M 348.957 68.821 Q 347.565 66.201 345.599 61.737 Q 343.633 57.273 341.545 51.745 Q 339.457 46.217 337.573 40.484 Q 338.146 39.665 339.088 39.174 Q 340.03 38.682 341.095 38.682 Q 342.487 38.682 343.388 39.419 Q 344.289 40.156 344.862 41.876 Q 347.319 48.756 350.022 55.554 Q 352.724 62.351 356 69.64 L 356.328 69.64 Q 358.048 66.201 359.932 61.041 Q 361.815 55.881 363.535 50.148 Q 365.255 44.415 366.402 39.337 Q 366.975 39.092 367.671 38.887 Q 368.367 38.682 369.186 38.682 Q 370.579 38.682 371.479 39.378 Q 372.38 40.074 372.38 41.467 Q 372.38 42.777 371.643 45.848 Q 370.906 48.92 369.637 52.974 Q 368.367 57.028 366.688 61.573 Q 365.009 66.119 363.085 70.5 Q 361.16 74.882 359.194 78.404 Q 355.427 85.365 352.315 89.092 Q 349.203 92.818 346.582 92.818 Q 344.698 92.818 343.674 91.835 Q 342.651 90.852 342.405 89.542 Q 344.207 87.986 346.459 85.406 Q 348.711 82.826 350.8 79.837 Q 352.888 76.848 354.199 74.145 Q 352.806 73.735 351.619 72.671 Q 350.431 71.606 348.957 68.821 Z" style="line-height: 191.825px; text-wrap-mode: nowrap; fill: rgb(255, 255, 255);"/>
      <path d="M 221.218 109.444 Q 221.218 107.069 222.897 105.431 Q 224.576 103.793 227.115 103.793 Q 229.736 103.793 231.333 105.431 Q 232.93 107.069 232.93 109.444 Q 232.93 111.738 231.333 113.417 Q 229.736 115.096 227.115 115.096 Q 224.576 115.096 222.897 113.417 Q 221.218 111.738 221.218 109.444 Z M 222.037 138.109 L 232.193 138.109 L 232.193 159.567 Q 231.538 159.813 230.309 160.018 Q 229.081 160.222 227.606 160.222 Q 224.822 160.222 223.43 159.199 Q 222.037 158.175 222.037 155.554 Z M 232.193 143.269 L 222.037 143.269 L 222.037 121.32 Q 222.692 121.074 223.962 120.869 Q 225.231 120.665 226.706 120.665 Q 229.572 120.665 230.882 121.688 Q 232.193 122.712 232.193 125.415 Z M 276.883 132.95 L 276.883 142.286 L 266.81 142.286 L 266.81 134.096 Q 266.81 130.902 264.885 129.387 Q 262.96 127.872 260.012 127.872 Q 257.882 127.872 256.122 128.486 Q 254.361 129.1 253.132 129.919 L 253.132 142.286 L 243.059 142.286 L 243.059 129.264 Q 243.059 127.299 243.878 126.029 Q 244.697 124.76 246.335 123.695 Q 248.873 121.975 252.6 120.91 Q 256.326 119.846 260.339 119.846 Q 264.353 119.846 267.71 121.074 Q 271.068 122.303 273.198 124.678 Q 273.771 125.169 274.262 125.661 Q 274.754 126.152 275.081 126.807 Q 275.819 128.036 276.351 129.633 Q 276.883 131.23 276.883 132.95 Z M 300.552 133.769 L 300.552 142.286 L 290.479 142.286 L 290.479 134.096 Q 290.479 130.902 288.677 129.387 Q 286.875 127.872 283.845 127.872 Q 281.633 127.872 279.545 128.773 Q 277.457 129.674 275.982 131.148 L 270.905 125.005 Q 273.443 122.876 276.883 121.361 Q 280.323 119.846 285.073 119.846 Q 289.414 119.846 292.936 121.238 Q 296.457 122.63 298.505 125.743 Q 300.552 128.855 300.552 133.769 Z M 243.059 138.355 L 253.132 138.355 L 253.132 159.567 Q 252.477 159.813 251.249 160.018 Q 250.02 160.222 248.546 160.222 Q 245.761 160.222 244.41 159.199 Q 243.059 158.175 243.059 155.554 Z M 266.81 138.355 L 276.883 138.355 L 276.883 159.567 Q 276.228 159.813 274.959 160.018 Q 273.689 160.222 272.297 160.222 Q 269.43 160.222 268.12 159.199 Q 266.81 158.175 266.81 155.554 Z M 290.479 138.355 L 300.552 138.355 L 300.552 159.567 Q 299.979 159.813 298.71 160.018 Q 297.44 160.222 296.048 160.222 Q 293.181 160.222 291.83 159.199 Q 290.479 158.175 290.479 155.554 Z M 326.339 153.261 Q 328.796 153.261 330.762 152.77 Q 332.727 152.278 333.628 151.705 L 333.628 142.368 L 325.52 143.187 Q 322.162 143.433 320.401 144.62 Q 318.641 145.808 318.641 148.101 Q 318.641 150.476 320.524 151.869 Q 322.408 153.261 326.339 153.261 Z M 325.93 119.846 Q 333.956 119.846 338.706 123.245 Q 343.456 126.643 343.456 133.933 L 343.456 152.77 Q 343.456 154.735 342.514 155.882 Q 341.573 157.028 340.098 157.929 Q 337.805 159.24 334.283 160.1 Q 330.762 160.96 326.339 160.96 Q 318.149 160.96 313.481 157.806 Q 308.813 154.653 308.813 148.429 Q 308.813 142.942 312.293 140.034 Q 315.774 137.127 322.408 136.471 L 333.546 135.325 L 333.546 133.851 Q 333.546 130.575 331.294 129.1 Q 329.042 127.626 324.947 127.626 Q 321.753 127.626 318.722 128.445 Q 315.692 129.264 313.317 130.411 Q 312.498 129.756 311.843 128.609 Q 311.188 127.462 311.188 126.234 Q 311.188 123.286 314.464 121.893 Q 316.757 120.829 319.828 120.337 Q 322.899 119.846 325.93 119.846 Z M 369.795 158.339 Q 364.963 158.339 360.868 156.496 Q 356.773 154.653 354.316 150.394 Q 351.859 146.136 351.859 139.174 Q 351.859 132.786 354.357 128.486 Q 356.855 124.186 361.4 122.016 Q 365.946 119.846 371.843 119.846 Q 376.02 119.846 379.582 120.91 Q 383.145 121.975 385.274 123.367 Q 386.667 124.268 387.527 125.538 Q 388.386 126.807 388.386 128.609 L 388.386 154.162 L 378.558 154.162 L 378.558 129.51 Q 377.494 128.855 375.938 128.363 Q 374.382 127.872 372.088 127.872 Q 367.584 127.872 364.758 130.657 Q 361.933 133.441 361.933 139.174 Q 361.933 145.48 364.676 148.019 Q 367.42 150.558 371.433 150.558 Q 374.545 150.558 376.47 149.494 Q 378.395 148.429 379.705 147.2 L 380.033 155.39 Q 378.558 156.537 375.979 157.438 Q 373.399 158.339 369.795 158.339 Z M 378.722 159.977 L 378.722 151.951 L 388.386 151.951 L 388.386 160.304 Q 388.386 165.874 385.848 169.354 Q 383.309 172.835 378.927 174.473 Q 374.545 176.111 369.14 176.111 Q 364.881 176.111 361.728 175.292 Q 358.575 174.473 357.101 173.572 Q 354.398 171.934 354.398 169.068 Q 354.398 167.593 355.053 166.447 Q 355.708 165.3 356.609 164.727 Q 358.657 166.037 361.728 167.02 Q 364.799 168.003 368.239 168.003 Q 373.153 168.003 375.938 166.078 Q 378.722 164.154 378.722 159.977 Z M 398.331 109.444 Q 398.331 107.069 400.01 105.431 Q 401.689 103.793 404.228 103.793 Q 406.849 103.793 408.446 105.431 Q 410.043 107.069 410.043 109.444 Q 410.043 111.738 408.446 113.417 Q 406.849 115.096 404.228 115.096 Q 401.689 115.096 400.01 113.417 Q 398.331 111.738 398.331 109.444 Z M 399.15 138.109 L 409.306 138.109 L 409.306 159.567 Q 408.65 159.813 407.422 160.018 Q 406.193 160.222 404.719 160.222 Q 401.935 160.222 400.542 159.199 Q 399.15 158.175 399.15 155.554 Z M 409.306 143.269 L 399.15 143.269 L 399.15 121.32 Q 399.805 121.074 401.075 120.869 Q 402.344 120.665 403.818 120.665 Q 406.685 120.665 407.995 121.688 Q 409.306 122.712 409.306 125.415 Z M 455.962 134.424 L 455.962 142.368 L 445.888 142.368 L 445.888 134.833 Q 445.888 131.23 443.84 129.551 Q 441.793 127.872 438.353 127.872 Q 435.814 127.872 433.808 128.486 Q 431.801 129.1 430.245 129.919 L 430.245 142.368 L 420.171 142.368 L 420.171 129.264 Q 420.171 127.299 420.99 126.029 Q 421.809 124.76 423.447 123.695 Q 425.904 122.057 429.795 120.951 Q 433.685 119.846 438.435 119.846 Q 446.707 119.846 451.334 123.531 Q 455.962 127.217 455.962 134.424 Z M 420.171 138.355 L 430.245 138.355 L 430.245 159.567 Q 429.59 159.813 428.361 160.018 Q 427.133 160.222 425.659 160.222 Q 422.874 160.222 421.523 159.199 Q 420.171 158.175 420.171 155.554 Z M 445.888 138.355 L 455.962 138.355 L 455.962 159.567 Q 455.388 159.813 454.119 160.018 Q 452.849 160.222 451.457 160.222 Q 448.591 160.222 447.239 159.199 Q 445.888 158.175 445.888 155.554 Z M 482.566 158.339 Q 477.734 158.339 473.639 156.496 Q 469.544 154.653 467.087 150.394 Q 464.63 146.136 464.63 139.174 Q 464.63 132.786 467.128 128.486 Q 469.626 124.186 474.171 122.016 Q 478.717 119.846 484.613 119.846 Q 488.79 119.846 492.353 120.91 Q 495.916 121.975 498.045 123.367 Q 499.437 124.268 500.297 125.538 Q 501.157 126.807 501.157 128.609 L 501.157 154.162 L 491.329 154.162 L 491.329 129.51 Q 490.265 128.855 488.708 128.363 Q 487.152 127.872 484.859 127.872 Q 480.355 127.872 477.529 130.657 Q 474.704 133.441 474.704 139.174 Q 474.704 145.48 477.447 148.019 Q 480.191 150.558 484.204 150.558 Q 487.316 150.558 489.241 149.494 Q 491.165 148.429 492.476 147.2 L 492.803 155.39 Q 491.329 156.537 488.749 157.438 Q 486.17 158.339 482.566 158.339 Z M 491.493 159.977 L 491.493 151.951 L 501.157 151.951 L 501.157 160.304 Q 501.157 165.874 498.618 169.354 Q 496.079 172.835 491.698 174.473 Q 487.316 176.111 481.911 176.111 Q 477.652 176.111 474.499 175.292 Q 471.346 174.473 469.871 173.572 Q 467.169 171.934 467.169 169.068 Q 467.169 167.593 467.824 166.447 Q 468.479 165.3 469.38 164.727 Q 471.428 166.037 474.499 167.02 Q 477.57 168.003 481.01 168.003 Q 485.924 168.003 488.708 166.078 Q 491.493 164.154 491.493 159.977 Z" style="line-height: 191.825px; text-wrap-mode: nowrap; fill: rgb(255, 255, 255);"/>
    </g>
  </g>
</svg>