<?xml version="1.0" encoding="utf-8"?>
<svg viewBox="0 0 180 80" xmlns="http://www.w3.org/2000/svg" xmlns:bx="https://boxy-svg.com">
  <defs>
    <style bx:fonts="Baloo 2">@import url(https://fonts.googleapis.com/css2?family=Baloo+2%3Aital%2Cwght%400%2C400..800&amp;display=swap);</style>
    <bx:grid x="0" y="0" width="190" height="80"/>
    <radialGradient id="gradient-2" gradientUnits="userSpaceOnUse" cx="152.286" cy="126.898" r="330" gradientTransform="matrix(0.638467, -1.091841, 1.097297, 0.641658, 52.727183, 218.434182)">
      <stop offset="0" style="stop-color: rgb(0, 170, 237);"/>
      <stop offset="1" style="stop-color: rgb(0, 145, 202);"/>
    </radialGradient>
    <linearGradient id="gradient-3" gradientUnits="userSpaceOnUse" x1="330" y1="0" x2="330" y2="660" gradientTransform="matrix(0.980745, -0.195296, 0.195753, 0.983035, -58.663244, 70.697931)">
      <stop offset="0" style="stop-color: rgb(152, 226, 255);"/>
      <stop offset="1" style="stop-color: rgb(78, 193, 239);"/>
    </linearGradient>
  </defs>
  <g transform="matrix(0.341978, 0, 0, 0.341978, 9.524829, 7.722592)">
    <g transform="matrix(0.273894, -0.073389, 0.073389, 0.273894, -233.282547, -235.615341)" style="transform-origin: 330px 330px;">
      <title>Logomark</title>
      <circle style="fill: url(&quot;#gradient-2&quot;); stroke: url(&quot;#gradient-3&quot;); stroke-width: 10.3125px;" cx="330" cy="330" r="330">
        <title>Main circle</title>
      </circle>
      <g transform="matrix(1, 0, 0, 1, 76.346565, 87.309868)">
        <title>Inner elements</title>
        <path d="M 254.298 -1.857 L 465.704 120.199 L 465.704 364.309 L 254.298 486.365 L 42.892 364.31 L 42.892 120.198 Z" style="fill: none; stroke-width: 20.625px; transform-box: fill-box; transform-origin: 50% 50%; stroke: rgb(141, 223, 255);" bx:shape="n-gon 254.298 242.254 244.111 244.111 6 0 1@11e70149" transform="matrix(0.965926, 0.258819, -0.258819, 0.965926, 0.03811, -0.966837)"/>
        <line style="fill: rgb(216, 216, 216); stroke-width: 20.625px; transform-origin: 80.741px 248.553px; stroke: rgb(212, 243, 255);" x1="77.672" y1="306.334" x2="77.671" y2="84.615" transform="matrix(0.965925, 0.258821, -0.258821, 0.965925, 0.000004, 0.000001)"/>
        <line style="fill: rgb(216, 216, 216); stroke-width: 20.625px; transform-origin: 249.328px 420.284px; stroke: rgb(212, 243, 255);" x1="246.259" y1="478.06" x2="246.259" y2="256.341" transform="matrix(0.258817, 0.965926, -0.965926, 0.258817, -0.000009, -0.000014)"/>
        <line style="fill: rgb(216, 216, 216); stroke-width: 20.625px; transform-origin: 411.506px 157.731px; stroke: rgb(212, 243, 255);" x1="408.437" y1="215.512" x2="408.436" y2="-6.207" transform="matrix(0.707108, -0.707106, 0.707106, 0.707108, -0.000008, -0.000002)"/>
      </g>
    </g>
    <g transform="matrix(1, 0, 0, 1, -3.848826, -4.564161)" style="">
      <title>Text</title>
      <text style="font-family: &quot;Baloo 2&quot;; font-size: 81.9px; font-weight: 300; line-height: 191.825px; white-space: pre;" x="216.363" y="77.257"><title>easy</title>easy</text>
      <text style="font-family: &quot;Baloo 2&quot;; font-size: 81.9px; font-weight: 600; line-height: 191.825px; white-space: pre;" x="216.468" y="159.731"><title>shapes</title>shapes</text>
    </g>
  </g>
</svg>