<?xml version="1.0" encoding="utf-8"?>
<svg viewBox="0 0 180 80" xmlns="http://www.w3.org/2000/svg" xmlns:bx="https://boxy-svg.com">
  <defs>
    <style bx:fonts="Baloo 2">@import url(https://fonts.googleapis.com/css2?family=Baloo+2%3Aital%2Cwght%400%2C400..800&amp;display=swap);</style>
    <bx:grid x="0" y="0" width="190" height="80"/>
    <radialGradient id="gradient-2" gradientUnits="userSpaceOnUse" cx="152.286" cy="126.898" r="330" gradientTransform="matrix(0.638467, -1.091841, 1.097297, 0.641658, 52.727183, 218.434182)">
      <stop offset="0" style="stop-color: rgb(0, 170, 237);"/>
      <stop offset="1" style="stop-color: rgb(0, 145, 202);"/>
    </radialGradient>
    <linearGradient id="gradient-3" gradientUnits="userSpaceOnUse" x1="330" y1="0" x2="330" y2="660" gradientTransform="matrix(0.980745, -0.195296, 0.195753, 0.983035, -58.663244, 70.697931)">
      <stop offset="0" style="stop-color: rgb(152, 226, 255);"/>
      <stop offset="1" style="stop-color: rgb(78, 193, 239);"/>
    </linearGradient>
  </defs>
  <g transform="matrix(0.341978, 0, 0, 0.341978, 9.524829, 7.722592)">
    <g transform="matrix(0.283556, 0.000001, -0.000001, 0.283556, -233.282547, -235.615341)" style="transform-origin: 330px 330px;">
      <title>Logomark</title>
      <circle style="fill: url(&quot;#gradient-2&quot;); stroke: url(&quot;#gradient-3&quot;); stroke-width: 10.3125px;" cx="330" cy="330" r="330">
        <title>Main circle</title>
      </circle>
      <g transform="matrix(1, 0, 0, 1, 76.346565, 87.309868)">
        <title>Inner elements</title>
      </g>
    </g>
    <g transform="matrix(1, 0, 0, 1, -3.848826, -4.564161)" style="">
      <title>Text</title>
      <text style="font-family: &quot;Baloo 2&quot;; font-size: 81.9px; font-weight: 300; line-height: 191.825px; white-space: pre;" x="216.363" y="77.257"><title>easy</title>easy</text>
      <text style="font-family: &quot;Baloo 2&quot;; font-size: 81.9px; font-weight: 600; line-height: 191.825px; white-space: pre;" x="216.468" y="159.731"><title>shapes</title>shapes</text>
    </g>
    <path d="M 115.811 39.696 C 115.811 50.194 107.302 58.703 96.804 58.703 C 86.307 58.703 77.797 50.194 77.797 39.696 C 77.797 29.199 86.307 20.689 96.804 20.689 C 107.302 20.689 115.811 29.199 115.811 39.696 Z" style="stroke-width: 5.84833px; fill: rgb(141, 223, 255);"/>
    <path d="M 163.796 66.73 C 163.796 77.228 155.287 85.737 144.789 85.737 C 134.292 85.737 125.782 77.228 125.782 66.73 C 125.782 56.233 134.292 47.723 144.789 47.723 C 155.287 47.723 163.796 56.233 163.796 66.73 Z" style="stroke-width: 5.84833px; fill: rgb(141, 223, 255);"/>
    <path d="M 164.551 122.318 C 164.551 132.816 156.042 141.325 145.544 141.325 C 135.047 141.325 126.537 132.816 126.537 122.318 C 126.537 111.821 135.047 103.311 145.544 103.311 C 156.042 103.311 164.551 111.821 164.551 122.318 Z" style="stroke-width: 5.84833px; fill: rgb(141, 223, 255);"/>
    <path d="M 116.07 149.958 C 116.07 160.456 107.561 168.965 97.063 168.965 C 86.566 168.965 78.056 160.456 78.056 149.958 C 78.056 139.461 86.566 130.951 97.063 130.951 C 107.561 130.951 116.07 139.461 116.07 149.958 Z" style="stroke-width: 5.84833px; fill: rgb(141, 223, 255);"/>
    <path d="M 67.552 122.171 C 67.552 132.669 59.043 141.178 48.545 141.178 C 38.048 141.178 29.538 132.669 29.538 122.171 C 29.538 111.674 38.048 103.164 48.545 103.164 C 59.043 103.164 67.552 111.674 67.552 122.171 Z" style="stroke-width: 5.84833px; fill: rgb(141, 223, 255);"/>
    <path d="M 68.496 66.523 C 68.496 77.021 59.987 85.53 49.489 85.53 C 38.992 85.53 30.482 77.021 30.482 66.523 C 30.482 56.026 38.992 47.516 49.489 47.516 C 59.987 47.516 68.496 56.026 68.496 66.523 Z" style="stroke-width: 5.84833px; fill: rgb(141, 223, 255);"/>
    <path style="fill: rgba(214, 131, 131, 0.44);" d="M 85.15 28.11 L 108.555 28.083 L 108.62 73.975 L 148.369 51.081 L 160.052 71.369 L 120.652 94.071 L 159.936 116.755 L 148.18 137.032 L 108.673 114.241 L 108.743 160.147 L 85.313 160.19 L 85.254 114.379 L 45.809 137.072 L 34.135 116.788 L 73.731 94.005 L 34.142 71.094 L 45.889 50.852 L 85.151 73.518 L 85.15 28.11 Z"/>
  </g>
</svg>